<mxfile host="app.diagrams.net" modified="2023-05-09T13:42:31.039Z" agent="Mozilla/5.0 (Macintosh; Intel Mac OS X 10_15_7) AppleWebKit/537.36 (KHTML, like Gecko) Chrome/112.0.0.0 Safari/537.36" etag="XSURHg6edGh4zeXBo3kg" version="21.2.1" type="github">
  <diagram name="Page-1" id="aQyxzVbsQPXxTn7EvQkj">
    <mxGraphModel dx="2415" dy="757" grid="1" gridSize="10" guides="1" tooltips="1" connect="1" arrows="1" fold="1" page="1" pageScale="1" pageWidth="827" pageHeight="1169" math="0" shadow="0">
      <root>
        <mxCell id="0" />
        <mxCell id="1" parent="0" />
        <mxCell id="j1CahgC6rs7sGtYgRK9o-32" value="Persistence &lt;br&gt;Layer" style="rounded=0;whiteSpace=wrap;html=1;align=left;" parent="1" vertex="1">
          <mxGeometry x="10" y="520" width="790" height="90" as="geometry" />
        </mxCell>
        <mxCell id="j1CahgC6rs7sGtYgRK9o-30" value="Service &lt;br&gt;Layer" style="rounded=0;whiteSpace=wrap;html=1;align=left;" parent="1" vertex="1">
          <mxGeometry x="10" y="410" width="790" height="90" as="geometry" />
        </mxCell>
        <mxCell id="j1CahgC6rs7sGtYgRK9o-23" value="Business&lt;br&gt;Layer" style="rounded=0;whiteSpace=wrap;html=1;align=left;" parent="1" vertex="1">
          <mxGeometry x="10" y="299" width="790" height="90" as="geometry" />
        </mxCell>
        <mxCell id="j1CahgC6rs7sGtYgRK9o-8" value="Presentation &lt;br&gt;Layer" style="rounded=0;whiteSpace=wrap;html=1;align=left;" parent="1" vertex="1">
          <mxGeometry x="10" y="150" width="790" height="90" as="geometry" />
        </mxCell>
        <mxCell id="j1CahgC6rs7sGtYgRK9o-1" value="Consumers" style="rounded=0;whiteSpace=wrap;html=1;align=left;" parent="1" vertex="1">
          <mxGeometry x="10" y="18" width="790" height="90" as="geometry" />
        </mxCell>
        <mxCell id="j1CahgC6rs7sGtYgRK9o-13" value="" style="edgeStyle=orthogonalEdgeStyle;rounded=0;orthogonalLoop=1;jettySize=auto;html=1;" parent="1" source="j1CahgC6rs7sGtYgRK9o-2" target="j1CahgC6rs7sGtYgRK9o-9" edge="1">
          <mxGeometry relative="1" as="geometry" />
        </mxCell>
        <mxCell id="j1CahgC6rs7sGtYgRK9o-2" value="Users" style="sketch=0;outlineConnect=0;fontColor=#232F3E;gradientColor=none;fillColor=#232F3D;strokeColor=none;dashed=0;verticalLabelPosition=top;verticalAlign=bottom;align=center;html=1;fontSize=12;fontStyle=0;aspect=fixed;pointerEvents=1;shape=mxgraph.aws4.users;labelPosition=center;" parent="1" vertex="1">
          <mxGeometry x="135" y="45" width="50" height="50" as="geometry" />
        </mxCell>
        <mxCell id="j1CahgC6rs7sGtYgRK9o-14" value="" style="edgeStyle=orthogonalEdgeStyle;rounded=0;orthogonalLoop=1;jettySize=auto;html=1;" parent="1" source="j1CahgC6rs7sGtYgRK9o-3" target="j1CahgC6rs7sGtYgRK9o-10" edge="1">
          <mxGeometry relative="1" as="geometry" />
        </mxCell>
        <mxCell id="j1CahgC6rs7sGtYgRK9o-3" value="" style="verticalLabelPosition=bottom;html=1;verticalAlign=top;align=center;strokeColor=none;fillColor=#00BEF2;shape=mxgraph.azure.laptop;pointerEvents=1;movable=1;resizable=1;rotatable=1;deletable=1;editable=1;locked=0;connectable=1;" parent="1" vertex="1">
          <mxGeometry x="306" y="55" width="50" height="30" as="geometry" />
        </mxCell>
        <mxCell id="j1CahgC6rs7sGtYgRK9o-15" value="" style="edgeStyle=orthogonalEdgeStyle;rounded=0;orthogonalLoop=1;jettySize=auto;html=1;entryX=0.5;entryY=0;entryDx=0;entryDy=0;" parent="1" source="j1CahgC6rs7sGtYgRK9o-4" target="j1CahgC6rs7sGtYgRK9o-11" edge="1">
          <mxGeometry relative="1" as="geometry">
            <Array as="points">
              <mxPoint x="506" y="150" />
              <mxPoint x="506" y="150" />
            </Array>
          </mxGeometry>
        </mxCell>
        <mxCell id="j1CahgC6rs7sGtYgRK9o-18" value="" style="edgeStyle=orthogonalEdgeStyle;rounded=0;orthogonalLoop=1;jettySize=auto;html=1;" parent="1" source="j1CahgC6rs7sGtYgRK9o-4" target="j1CahgC6rs7sGtYgRK9o-11" edge="1">
          <mxGeometry relative="1" as="geometry" />
        </mxCell>
        <mxCell id="j1CahgC6rs7sGtYgRK9o-4" value="" style="image;html=1;image=img/lib/clip_art/computers/Server_Rack_128x128.png" parent="1" vertex="1">
          <mxGeometry x="478" y="42.5" width="56" height="55" as="geometry" />
        </mxCell>
        <mxCell id="j1CahgC6rs7sGtYgRK9o-5" value="Devices" style="outlineConnect=0;dashed=0;verticalLabelPosition=top;verticalAlign=bottom;align=center;html=1;shape=mxgraph.aws3.sensor;fillColor=#5294CF;gradientColor=none;labelPosition=center;" parent="1" vertex="1">
          <mxGeometry x="660" y="44" width="44.2" height="52" as="geometry" />
        </mxCell>
        <mxCell id="j1CahgC6rs7sGtYgRK9o-7" value="&lt;meta charset=&quot;utf-8&quot;&gt;&lt;span style=&quot;color: rgb(0, 0, 0); font-family: Helvetica; font-size: 12px; font-style: normal; font-variant-ligatures: normal; font-variant-caps: normal; font-weight: 400; letter-spacing: normal; orphans: 2; text-align: center; text-indent: 0px; text-transform: none; widows: 2; word-spacing: 0px; -webkit-text-stroke-width: 0px; background-color: rgb(251, 251, 251); text-decoration-thickness: initial; text-decoration-style: initial; text-decoration-color: initial; float: none; display: inline !important;&quot;&gt;External systems&lt;/span&gt;" style="text;html=1;strokeColor=none;fillColor=none;align=center;verticalAlign=middle;whiteSpace=wrap;rounded=0;" parent="1" vertex="1">
          <mxGeometry x="358" y="28" width="120" height="30" as="geometry" />
        </mxCell>
        <mxCell id="j1CahgC6rs7sGtYgRK9o-25" value="" style="edgeStyle=orthogonalEdgeStyle;rounded=0;orthogonalLoop=1;jettySize=auto;html=1;strokeColor=#FFD966;strokeWidth=2;" parent="1" source="j1CahgC6rs7sGtYgRK9o-9" target="j1CahgC6rs7sGtYgRK9o-23" edge="1">
          <mxGeometry relative="1" as="geometry" />
        </mxCell>
        <mxCell id="j1CahgC6rs7sGtYgRK9o-9" value="UI" style="rounded=0;whiteSpace=wrap;html=1;" parent="1" vertex="1">
          <mxGeometry x="120" y="165" width="80" height="60" as="geometry" />
        </mxCell>
        <mxCell id="j1CahgC6rs7sGtYgRK9o-26" value="" style="edgeStyle=orthogonalEdgeStyle;rounded=0;orthogonalLoop=1;jettySize=auto;html=1;entryX=0.5;entryY=0;entryDx=0;entryDy=0;strokeColor=#FFD966;strokeWidth=2;" parent="1" source="j1CahgC6rs7sGtYgRK9o-10" target="j1CahgC6rs7sGtYgRK9o-23" edge="1">
          <mxGeometry relative="1" as="geometry" />
        </mxCell>
        <mxCell id="j1CahgC6rs7sGtYgRK9o-10" value="Rest API" style="rounded=0;whiteSpace=wrap;html=1;" parent="1" vertex="1">
          <mxGeometry x="290" y="165" width="82" height="60" as="geometry" />
        </mxCell>
        <mxCell id="j1CahgC6rs7sGtYgRK9o-27" value="" style="edgeStyle=orthogonalEdgeStyle;rounded=0;orthogonalLoop=1;jettySize=auto;html=1;entryX=0.5;entryY=0;entryDx=0;entryDy=0;strokeColor=#FFD966;strokeWidth=2;" parent="1" source="j1CahgC6rs7sGtYgRK9o-11" target="j1CahgC6rs7sGtYgRK9o-23" edge="1">
          <mxGeometry relative="1" as="geometry" />
        </mxCell>
        <mxCell id="j1CahgC6rs7sGtYgRK9o-11" value="Route" style="rounded=0;whiteSpace=wrap;html=1;" parent="1" vertex="1">
          <mxGeometry x="470" y="165" width="72" height="60" as="geometry" />
        </mxCell>
        <mxCell id="j1CahgC6rs7sGtYgRK9o-28" value="" style="edgeStyle=orthogonalEdgeStyle;rounded=0;orthogonalLoop=1;jettySize=auto;html=1;strokeColor=#FFD966;strokeWidth=2;" parent="1" source="j1CahgC6rs7sGtYgRK9o-12" target="j1CahgC6rs7sGtYgRK9o-23" edge="1">
          <mxGeometry relative="1" as="geometry" />
        </mxCell>
        <mxCell id="j1CahgC6rs7sGtYgRK9o-12" value="MQTT" style="rounded=0;whiteSpace=wrap;html=1;" parent="1" vertex="1">
          <mxGeometry x="650" y="165" width="64.2" height="60" as="geometry" />
        </mxCell>
        <mxCell id="j1CahgC6rs7sGtYgRK9o-17" value="" style="edgeStyle=orthogonalEdgeStyle;rounded=0;orthogonalLoop=1;jettySize=auto;html=1;entryX=0.5;entryY=0;entryDx=0;entryDy=0;exitX=0.5;exitY=1;exitDx=0;exitDy=0;" parent="1" source="j1CahgC6rs7sGtYgRK9o-4" target="j1CahgC6rs7sGtYgRK9o-10" edge="1">
          <mxGeometry relative="1" as="geometry">
            <mxPoint x="516" y="95" as="sourcePoint" />
            <mxPoint x="500" y="175" as="targetPoint" />
            <Array as="points">
              <mxPoint x="506" y="130" />
              <mxPoint x="331" y="130" />
            </Array>
          </mxGeometry>
        </mxCell>
        <mxCell id="j1CahgC6rs7sGtYgRK9o-19" value="" style="edgeStyle=orthogonalEdgeStyle;rounded=0;orthogonalLoop=1;jettySize=auto;html=1;exitX=0.5;exitY=1;exitDx=0;exitDy=0;exitPerimeter=0;entryX=0.5;entryY=0;entryDx=0;entryDy=0;" parent="1" source="j1CahgC6rs7sGtYgRK9o-3" target="j1CahgC6rs7sGtYgRK9o-11" edge="1">
          <mxGeometry relative="1" as="geometry">
            <mxPoint x="341" y="82" as="sourcePoint" />
            <mxPoint x="341" y="175" as="targetPoint" />
          </mxGeometry>
        </mxCell>
        <mxCell id="j1CahgC6rs7sGtYgRK9o-20" value="" style="edgeStyle=orthogonalEdgeStyle;rounded=0;orthogonalLoop=1;jettySize=auto;html=1;exitX=0.5;exitY=1;exitDx=0;exitDy=0;exitPerimeter=0;entryX=0.5;entryY=0;entryDx=0;entryDy=0;" parent="1" source="j1CahgC6rs7sGtYgRK9o-5" target="j1CahgC6rs7sGtYgRK9o-12" edge="1">
          <mxGeometry relative="1" as="geometry">
            <mxPoint x="341" y="82" as="sourcePoint" />
            <mxPoint x="516" y="175" as="targetPoint" />
          </mxGeometry>
        </mxCell>
        <mxCell id="j1CahgC6rs7sGtYgRK9o-21" value="Transaction Boundary" style="endArrow=none;dashed=1;html=1;rounded=0;" parent="1" edge="1">
          <mxGeometry x="0.2658" width="50" height="50" relative="1" as="geometry">
            <mxPoint x="10" y="280" as="sourcePoint" />
            <mxPoint x="800" y="280" as="targetPoint" />
            <mxPoint as="offset" />
          </mxGeometry>
        </mxCell>
        <mxCell id="j1CahgC6rs7sGtYgRK9o-41" value="" style="edgeStyle=orthogonalEdgeStyle;rounded=0;orthogonalLoop=1;jettySize=auto;html=1;entryX=0.5;entryY=0;entryDx=0;entryDy=0;strokeColor=#97D077;strokeWidth=2;" parent="1" source="j1CahgC6rs7sGtYgRK9o-24" target="j1CahgC6rs7sGtYgRK9o-38" edge="1">
          <mxGeometry relative="1" as="geometry" />
        </mxCell>
        <mxCell id="j1CahgC6rs7sGtYgRK9o-24" value="UserService" style="rounded=0;whiteSpace=wrap;html=1;" parent="1" vertex="1">
          <mxGeometry x="185" y="314" width="120" height="60" as="geometry" />
        </mxCell>
        <mxCell id="j1CahgC6rs7sGtYgRK9o-31" value="PasswordValidator" style="rounded=0;whiteSpace=wrap;html=1;" parent="1" vertex="1">
          <mxGeometry x="270" y="425" width="120" height="60" as="geometry" />
        </mxCell>
        <mxCell id="j1CahgC6rs7sGtYgRK9o-33" value="CredentialRepo" style="rounded=0;whiteSpace=wrap;html=1;" parent="1" vertex="1">
          <mxGeometry x="254" y="535" width="120" height="60" as="geometry" />
        </mxCell>
        <mxCell id="j1CahgC6rs7sGtYgRK9o-34" value="DeviceService" style="rounded=0;whiteSpace=wrap;html=1;" parent="1" vertex="1">
          <mxGeometry x="530" y="314" width="120" height="60" as="geometry" />
        </mxCell>
        <mxCell id="j1CahgC6rs7sGtYgRK9o-48" value="" style="edgeStyle=orthogonalEdgeStyle;rounded=0;orthogonalLoop=1;jettySize=auto;html=1;strokeColor=#97D077;strokeWidth=2;" parent="1" source="j1CahgC6rs7sGtYgRK9o-35" target="j1CahgC6rs7sGtYgRK9o-37" edge="1">
          <mxGeometry relative="1" as="geometry" />
        </mxCell>
        <mxCell id="j1CahgC6rs7sGtYgRK9o-35" value="RootUserTester" style="rounded=0;whiteSpace=wrap;html=1;" parent="1" vertex="1">
          <mxGeometry x="413" y="425" width="120" height="60" as="geometry" />
        </mxCell>
        <mxCell id="j1CahgC6rs7sGtYgRK9o-36" value="DeviceConnectionManager" style="rounded=0;whiteSpace=wrap;html=1;" parent="1" vertex="1">
          <mxGeometry x="560" y="425" width="170" height="60" as="geometry" />
        </mxCell>
        <mxCell id="j1CahgC6rs7sGtYgRK9o-37" value="AccountRepo" style="rounded=0;whiteSpace=wrap;html=1;" parent="1" vertex="1">
          <mxGeometry x="386" y="535" width="120" height="60" as="geometry" />
        </mxCell>
        <mxCell id="j1CahgC6rs7sGtYgRK9o-38" value="UserRepo" style="rounded=0;whiteSpace=wrap;html=1;" parent="1" vertex="1">
          <mxGeometry x="123" y="535" width="120" height="60" as="geometry" />
        </mxCell>
        <mxCell id="j1CahgC6rs7sGtYgRK9o-39" value="DeviceRepo" style="rounded=0;whiteSpace=wrap;html=1;" parent="1" vertex="1">
          <mxGeometry x="517" y="535" width="120" height="60" as="geometry" />
        </mxCell>
        <mxCell id="j1CahgC6rs7sGtYgRK9o-40" value="DeviceConnectionRepo" style="rounded=0;whiteSpace=wrap;html=1;" parent="1" vertex="1">
          <mxGeometry x="650" y="535" width="140" height="60" as="geometry" />
        </mxCell>
        <mxCell id="j1CahgC6rs7sGtYgRK9o-42" value="" style="edgeStyle=orthogonalEdgeStyle;rounded=0;orthogonalLoop=1;jettySize=auto;html=1;entryX=0.5;entryY=0;entryDx=0;entryDy=0;exitX=0.5;exitY=1;exitDx=0;exitDy=0;strokeColor=#97D077;strokeWidth=2;" parent="1" source="j1CahgC6rs7sGtYgRK9o-24" target="j1CahgC6rs7sGtYgRK9o-31" edge="1">
          <mxGeometry relative="1" as="geometry">
            <mxPoint x="255" y="384" as="sourcePoint" />
            <mxPoint x="193" y="545" as="targetPoint" />
          </mxGeometry>
        </mxCell>
        <mxCell id="j1CahgC6rs7sGtYgRK9o-43" value="" style="edgeStyle=orthogonalEdgeStyle;rounded=0;orthogonalLoop=1;jettySize=auto;html=1;entryX=0.25;entryY=0;entryDx=0;entryDy=0;exitX=0.5;exitY=1;exitDx=0;exitDy=0;strokeColor=#97D077;strokeWidth=2;" parent="1" source="j1CahgC6rs7sGtYgRK9o-31" target="j1CahgC6rs7sGtYgRK9o-37" edge="1">
          <mxGeometry relative="1" as="geometry">
            <mxPoint x="255" y="384" as="sourcePoint" />
            <mxPoint x="340" y="435" as="targetPoint" />
          </mxGeometry>
        </mxCell>
        <mxCell id="j1CahgC6rs7sGtYgRK9o-44" value="" style="edgeStyle=orthogonalEdgeStyle;rounded=0;orthogonalLoop=1;jettySize=auto;html=1;entryX=0.25;entryY=0;entryDx=0;entryDy=0;exitX=0.5;exitY=1;exitDx=0;exitDy=0;strokeColor=#97D077;strokeWidth=2;" parent="1" source="j1CahgC6rs7sGtYgRK9o-24" target="j1CahgC6rs7sGtYgRK9o-35" edge="1">
          <mxGeometry relative="1" as="geometry">
            <mxPoint x="340" y="495" as="sourcePoint" />
            <mxPoint x="324" y="545" as="targetPoint" />
          </mxGeometry>
        </mxCell>
        <mxCell id="j1CahgC6rs7sGtYgRK9o-45" value="" style="edgeStyle=orthogonalEdgeStyle;rounded=0;orthogonalLoop=1;jettySize=auto;html=1;entryX=0.75;entryY=0;entryDx=0;entryDy=0;exitX=0.5;exitY=1;exitDx=0;exitDy=0;strokeColor=#97D077;strokeWidth=2;" parent="1" source="j1CahgC6rs7sGtYgRK9o-34" target="j1CahgC6rs7sGtYgRK9o-35" edge="1">
          <mxGeometry relative="1" as="geometry">
            <mxPoint x="255" y="384" as="sourcePoint" />
            <mxPoint x="483" y="435" as="targetPoint" />
          </mxGeometry>
        </mxCell>
        <mxCell id="j1CahgC6rs7sGtYgRK9o-46" value="" style="edgeStyle=orthogonalEdgeStyle;rounded=0;orthogonalLoop=1;jettySize=auto;html=1;entryX=0.5;entryY=0;entryDx=0;entryDy=0;exitX=0.5;exitY=1;exitDx=0;exitDy=0;strokeColor=#97D077;strokeWidth=2;" parent="1" source="j1CahgC6rs7sGtYgRK9o-34" target="j1CahgC6rs7sGtYgRK9o-36" edge="1">
          <mxGeometry relative="1" as="geometry">
            <mxPoint x="600" y="384" as="sourcePoint" />
            <mxPoint x="483" y="435" as="targetPoint" />
          </mxGeometry>
        </mxCell>
        <mxCell id="j1CahgC6rs7sGtYgRK9o-47" value="" style="edgeStyle=orthogonalEdgeStyle;rounded=0;orthogonalLoop=1;jettySize=auto;html=1;entryX=0.25;entryY=0;entryDx=0;entryDy=0;exitX=0.5;exitY=1;exitDx=0;exitDy=0;strokeColor=#97D077;strokeWidth=2;" parent="1" source="j1CahgC6rs7sGtYgRK9o-34" target="j1CahgC6rs7sGtYgRK9o-39" edge="1">
          <mxGeometry relative="1" as="geometry">
            <mxPoint x="600" y="384" as="sourcePoint" />
            <mxPoint x="655" y="435" as="targetPoint" />
            <Array as="points">
              <mxPoint x="590" y="400" />
              <mxPoint x="547" y="400" />
            </Array>
          </mxGeometry>
        </mxCell>
        <mxCell id="j1CahgC6rs7sGtYgRK9o-49" value="" style="edgeStyle=orthogonalEdgeStyle;rounded=0;orthogonalLoop=1;jettySize=auto;html=1;entryX=0.5;entryY=0;entryDx=0;entryDy=0;exitX=0.5;exitY=1;exitDx=0;exitDy=0;strokeColor=#97D077;strokeWidth=2;" parent="1" source="j1CahgC6rs7sGtYgRK9o-31" target="j1CahgC6rs7sGtYgRK9o-33" edge="1">
          <mxGeometry relative="1" as="geometry">
            <mxPoint x="340" y="495" as="sourcePoint" />
            <mxPoint x="426" y="545" as="targetPoint" />
          </mxGeometry>
        </mxCell>
        <mxCell id="j1CahgC6rs7sGtYgRK9o-50" value="" style="edgeStyle=orthogonalEdgeStyle;rounded=0;orthogonalLoop=1;jettySize=auto;html=1;entryX=0.5;entryY=0;entryDx=0;entryDy=0;exitX=0.5;exitY=1;exitDx=0;exitDy=0;fontStyle=1;strokeColor=#97D077;strokeWidth=2;" parent="1" source="j1CahgC6rs7sGtYgRK9o-36" target="j1CahgC6rs7sGtYgRK9o-39" edge="1">
          <mxGeometry relative="1" as="geometry">
            <mxPoint x="350" y="505" as="sourcePoint" />
            <mxPoint x="436" y="555" as="targetPoint" />
          </mxGeometry>
        </mxCell>
        <mxCell id="j1CahgC6rs7sGtYgRK9o-51" value="" style="edgeStyle=orthogonalEdgeStyle;rounded=0;orthogonalLoop=1;jettySize=auto;html=1;entryX=0.5;entryY=0;entryDx=0;entryDy=0;exitX=0.75;exitY=1;exitDx=0;exitDy=0;fontStyle=1;strokeColor=#97D077;strokeWidth=2;" parent="1" source="j1CahgC6rs7sGtYgRK9o-36" target="j1CahgC6rs7sGtYgRK9o-40" edge="1">
          <mxGeometry relative="1" as="geometry">
            <mxPoint x="655" y="495" as="sourcePoint" />
            <mxPoint x="587" y="545" as="targetPoint" />
          </mxGeometry>
        </mxCell>
        <mxCell id="j1CahgC6rs7sGtYgRK9o-52" value="" style="edgeStyle=orthogonalEdgeStyle;rounded=0;orthogonalLoop=1;jettySize=auto;html=1;entryX=0.75;entryY=0;entryDx=0;entryDy=0;exitX=0.5;exitY=1;exitDx=0;exitDy=0;fontStyle=1;strokeColor=#97D077;strokeWidth=2;" parent="1" source="j1CahgC6rs7sGtYgRK9o-34" target="j1CahgC6rs7sGtYgRK9o-40" edge="1">
          <mxGeometry relative="1" as="geometry">
            <mxPoint x="698" y="495" as="sourcePoint" />
            <mxPoint x="730" y="545" as="targetPoint" />
            <Array as="points">
              <mxPoint x="590" y="400" />
              <mxPoint x="755" y="400" />
            </Array>
          </mxGeometry>
        </mxCell>
        <mxCell id="j1CahgC6rs7sGtYgRK9o-56" style="edgeStyle=orthogonalEdgeStyle;rounded=0;orthogonalLoop=1;jettySize=auto;html=1;exitX=0.5;exitY=0;exitDx=0;exitDy=0;entryX=1;entryY=0.5;entryDx=0;entryDy=0;strokeColor=#FFD966;strokeWidth=2;" parent="1" source="j1CahgC6rs7sGtYgRK9o-23" target="j1CahgC6rs7sGtYgRK9o-24" edge="1">
          <mxGeometry relative="1" as="geometry">
            <Array as="points">
              <mxPoint x="405" y="344" />
            </Array>
          </mxGeometry>
        </mxCell>
        <mxCell id="j1CahgC6rs7sGtYgRK9o-57" style="edgeStyle=orthogonalEdgeStyle;rounded=0;orthogonalLoop=1;jettySize=auto;html=1;exitX=0.5;exitY=0;exitDx=0;exitDy=0;entryX=0;entryY=0.5;entryDx=0;entryDy=0;strokeColor=#FFD966;strokeWidth=2;" parent="1" source="j1CahgC6rs7sGtYgRK9o-23" target="j1CahgC6rs7sGtYgRK9o-34" edge="1">
          <mxGeometry relative="1" as="geometry">
            <mxPoint x="415" y="309" as="sourcePoint" />
            <mxPoint x="315" y="354" as="targetPoint" />
            <Array as="points">
              <mxPoint x="405" y="344" />
            </Array>
          </mxGeometry>
        </mxCell>
        <mxCell id="j1CahgC6rs7sGtYgRK9o-58" value="Database&lt;br&gt;Layer" style="rounded=0;whiteSpace=wrap;html=1;align=left;" parent="1" vertex="1">
          <mxGeometry x="10" y="651" width="790" height="90" as="geometry" />
        </mxCell>
        <mxCell id="j1CahgC6rs7sGtYgRK9o-59" value="Constraints" style="rounded=0;whiteSpace=wrap;html=1;" parent="1" vertex="1">
          <mxGeometry x="392" y="666" width="120" height="60" as="geometry" />
        </mxCell>
        <mxCell id="j1CahgC6rs7sGtYgRK9o-60" value="&lt;strike&gt;Stored Procedures&lt;/strike&gt;" style="rounded=0;whiteSpace=wrap;html=1;" parent="1" vertex="1">
          <mxGeometry x="660" y="666" width="120" height="60" as="geometry" />
        </mxCell>
        <mxCell id="j1CahgC6rs7sGtYgRK9o-61" value="Tables" style="rounded=0;whiteSpace=wrap;html=1;" parent="1" vertex="1">
          <mxGeometry x="123" y="666" width="120" height="60" as="geometry" />
        </mxCell>
        <mxCell id="j1CahgC6rs7sGtYgRK9o-64" value="SQL (?)" style="shape=flexArrow;endArrow=classic;html=1;rounded=0;exitX=0.5;exitY=1;exitDx=0;exitDy=0;entryX=0.5;entryY=0;entryDx=0;entryDy=0;width=46.51162790697675;endSize=7.016279069767442;endWidth=20.811249323958897;" parent="1" source="j1CahgC6rs7sGtYgRK9o-32" target="j1CahgC6rs7sGtYgRK9o-58" edge="1">
          <mxGeometry x="-0.0244" width="50" height="50" relative="1" as="geometry">
            <mxPoint x="340" y="770" as="sourcePoint" />
            <mxPoint x="390" y="720" as="targetPoint" />
            <mxPoint as="offset" />
          </mxGeometry>
        </mxCell>
        <mxCell id="j1CahgC6rs7sGtYgRK9o-66" value="&lt;font color=&quot;#ffd966&quot; style=&quot;font-size: 14px;&quot;&gt;DTOs&lt;/font&gt;" style="text;html=1;strokeColor=none;fillColor=none;align=center;verticalAlign=middle;whiteSpace=wrap;rounded=0;fontStyle=1;fontSize=14;" parent="1" vertex="1">
          <mxGeometry x="372" y="240" width="60" height="30" as="geometry" />
        </mxCell>
        <mxCell id="j1CahgC6rs7sGtYgRK9o-67" value="&lt;font color=&quot;#97d077&quot; style=&quot;font-size: 14px;&quot;&gt;BOs&lt;/font&gt;" style="text;html=1;strokeColor=none;fillColor=none;align=center;verticalAlign=middle;whiteSpace=wrap;rounded=0;fontStyle=1;fontSize=14;" parent="1" vertex="1">
          <mxGeometry x="443" y="386" width="60" height="30" as="geometry" />
        </mxCell>
        <mxCell id="j1CahgC6rs7sGtYgRK9o-68" value="&lt;font color=&quot;#97d077&quot; style=&quot;font-size: 14px;&quot;&gt;BOs&lt;/font&gt;" style="text;html=1;strokeColor=none;fillColor=none;align=center;verticalAlign=middle;whiteSpace=wrap;rounded=0;fontStyle=1;fontSize=14;" parent="1" vertex="1">
          <mxGeometry x="470" y="496" width="60" height="30" as="geometry" />
        </mxCell>
        <mxCell id="j1CahgC6rs7sGtYgRK9o-69" value="Persistence &lt;br&gt;Layer" style="rounded=0;whiteSpace=wrap;html=1;align=left;fillColor=#f5f5f5;fontColor=#333333;strokeColor=#666666;" parent="1" vertex="1">
          <mxGeometry x="10" y="1273" width="790" height="90" as="geometry" />
        </mxCell>
        <mxCell id="j1CahgC6rs7sGtYgRK9o-70" value="Collaborators&lt;br&gt;Layer" style="rounded=0;whiteSpace=wrap;html=1;align=left;fillColor=#f5f5f5;fontColor=#333333;strokeColor=#666666;" parent="1" vertex="1">
          <mxGeometry x="10" y="1169" width="790" height="90" as="geometry" />
        </mxCell>
        <mxCell id="j1CahgC6rs7sGtYgRK9o-71" value="Services&lt;br&gt;Layer" style="rounded=0;whiteSpace=wrap;html=1;align=left;fillColor=#f5f5f5;fontColor=#333333;strokeColor=#666666;" parent="1" vertex="1">
          <mxGeometry x="10" y="1023" width="790" height="90" as="geometry" />
        </mxCell>
        <mxCell id="j1CahgC6rs7sGtYgRK9o-72" value="Frontend&lt;br&gt;Layer" style="rounded=0;whiteSpace=wrap;html=1;align=left;fillColor=#f5f5f5;fontColor=#333333;strokeColor=#666666;" parent="1" vertex="1">
          <mxGeometry x="10" y="902" width="790" height="90" as="geometry" />
        </mxCell>
        <mxCell id="j1CahgC6rs7sGtYgRK9o-73" value="Consumers" style="rounded=0;whiteSpace=wrap;html=1;align=left;fillColor=#f5f5f5;fontColor=#333333;strokeColor=#666666;" parent="1" vertex="1">
          <mxGeometry x="10" y="770" width="790" height="90" as="geometry" />
        </mxCell>
        <mxCell id="j1CahgC6rs7sGtYgRK9o-74" value="" style="edgeStyle=orthogonalEdgeStyle;rounded=0;orthogonalLoop=1;jettySize=auto;html=1;" parent="1" source="j1CahgC6rs7sGtYgRK9o-75" target="j1CahgC6rs7sGtYgRK9o-84" edge="1">
          <mxGeometry relative="1" as="geometry" />
        </mxCell>
        <mxCell id="j1CahgC6rs7sGtYgRK9o-75" value="Users" style="sketch=0;outlineConnect=0;fontColor=#232F3E;gradientColor=none;fillColor=#232F3D;strokeColor=none;dashed=0;verticalLabelPosition=top;verticalAlign=bottom;align=center;html=1;fontSize=12;fontStyle=0;aspect=fixed;pointerEvents=1;shape=mxgraph.aws4.users;labelPosition=center;" parent="1" vertex="1">
          <mxGeometry x="188" y="797" width="50" height="50" as="geometry" />
        </mxCell>
        <mxCell id="j1CahgC6rs7sGtYgRK9o-76" value="" style="edgeStyle=orthogonalEdgeStyle;rounded=0;orthogonalLoop=1;jettySize=auto;html=1;entryX=0.5;entryY=0;entryDx=0;entryDy=0;exitX=0.5;exitY=1;exitDx=0;exitDy=0;exitPerimeter=0;" parent="1" source="j1CahgC6rs7sGtYgRK9o-77" target="j1CahgC6rs7sGtYgRK9o-86" edge="1">
          <mxGeometry relative="1" as="geometry">
            <Array as="points">
              <mxPoint x="314" y="837" />
              <mxPoint x="314" y="917" />
            </Array>
          </mxGeometry>
        </mxCell>
        <mxCell id="j1CahgC6rs7sGtYgRK9o-77" value="" style="verticalLabelPosition=bottom;html=1;verticalAlign=top;align=center;strokeColor=none;fillColor=#00BEF2;shape=mxgraph.azure.laptop;pointerEvents=1;movable=1;resizable=1;rotatable=1;deletable=1;editable=1;locked=0;connectable=1;" parent="1" vertex="1">
          <mxGeometry x="290" y="807" width="50" height="30" as="geometry" />
        </mxCell>
        <mxCell id="j1CahgC6rs7sGtYgRK9o-79" value="" style="edgeStyle=orthogonalEdgeStyle;rounded=0;orthogonalLoop=1;jettySize=auto;html=1;entryX=0.5;entryY=0;entryDx=0;entryDy=0;" parent="1" source="j1CahgC6rs7sGtYgRK9o-80" target="j1CahgC6rs7sGtYgRK9o-88" edge="1">
          <mxGeometry relative="1" as="geometry">
            <Array as="points">
              <mxPoint x="418" y="880" />
              <mxPoint x="418" y="880" />
            </Array>
          </mxGeometry>
        </mxCell>
        <mxCell id="j1CahgC6rs7sGtYgRK9o-80" value="" style="image;html=1;image=img/lib/clip_art/computers/Server_Rack_128x128.png" parent="1" vertex="1">
          <mxGeometry x="390" y="794.5" width="56" height="55" as="geometry" />
        </mxCell>
        <mxCell id="j1CahgC6rs7sGtYgRK9o-81" value="Devices" style="outlineConnect=0;dashed=0;verticalLabelPosition=top;verticalAlign=bottom;align=center;html=1;shape=mxgraph.aws3.sensor;fillColor=#5294CF;gradientColor=none;labelPosition=center;" parent="1" vertex="1">
          <mxGeometry x="497.79999999999995" y="797" width="44.2" height="52" as="geometry" />
        </mxCell>
        <mxCell id="j1CahgC6rs7sGtYgRK9o-82" value="&lt;meta charset=&quot;utf-8&quot;&gt;&lt;span style=&quot;color: rgb(0, 0, 0); font-family: Helvetica; font-size: 12px; font-style: normal; font-variant-ligatures: normal; font-variant-caps: normal; font-weight: 400; letter-spacing: normal; orphans: 2; text-align: center; text-indent: 0px; text-transform: none; widows: 2; word-spacing: 0px; -webkit-text-stroke-width: 0px; background-color: rgb(251, 251, 251); text-decoration-thickness: initial; text-decoration-style: initial; text-decoration-color: initial; float: none; display: inline !important;&quot;&gt;External systems&lt;/span&gt;" style="text;html=1;strokeColor=none;fillColor=none;align=center;verticalAlign=middle;whiteSpace=wrap;rounded=0;" parent="1" vertex="1">
          <mxGeometry x="294" y="777" width="120" height="30" as="geometry" />
        </mxCell>
        <mxCell id="j1CahgC6rs7sGtYgRK9o-84" value="UI" style="rounded=0;whiteSpace=wrap;html=1;fillColor=#ffcd28;strokeColor=#d79b00;gradientColor=#ffa500;" parent="1" vertex="1">
          <mxGeometry x="173" y="917" width="80" height="60" as="geometry" />
        </mxCell>
        <mxCell id="j1CahgC6rs7sGtYgRK9o-86" value="Rest API" style="rounded=0;whiteSpace=wrap;html=1;fillColor=#ffcd28;strokeColor=#d79b00;gradientColor=#ffa500;" parent="1" vertex="1">
          <mxGeometry x="274" y="917" width="82" height="60" as="geometry" />
        </mxCell>
        <mxCell id="j1CahgC6rs7sGtYgRK9o-88" value="Route" style="rounded=0;whiteSpace=wrap;html=1;fillColor=#ffcd28;strokeColor=#d79b00;gradientColor=#ffa500;" parent="1" vertex="1">
          <mxGeometry x="382" y="917" width="72" height="60" as="geometry" />
        </mxCell>
        <mxCell id="j1CahgC6rs7sGtYgRK9o-90" value="MQTT" style="rounded=0;whiteSpace=wrap;html=1;fillColor=#ffcd28;strokeColor=#d79b00;gradientColor=#ffa500;" parent="1" vertex="1">
          <mxGeometry x="487.79999999999995" y="917" width="64.2" height="60" as="geometry" />
        </mxCell>
        <mxCell id="j1CahgC6rs7sGtYgRK9o-92" value="" style="edgeStyle=orthogonalEdgeStyle;rounded=0;orthogonalLoop=1;jettySize=auto;html=1;entryX=0.5;entryY=0;entryDx=0;entryDy=0;exitX=0.5;exitY=1;exitDx=0;exitDy=0;exitPerimeter=0;" parent="1" source="j1CahgC6rs7sGtYgRK9o-77" target="j1CahgC6rs7sGtYgRK9o-88" edge="1">
          <mxGeometry relative="1" as="geometry">
            <mxPoint x="341" y="834" as="sourcePoint" />
            <mxPoint x="341" y="927" as="targetPoint" />
            <Array as="points">
              <mxPoint x="315" y="880" />
              <mxPoint x="418" y="880" />
            </Array>
          </mxGeometry>
        </mxCell>
        <mxCell id="j1CahgC6rs7sGtYgRK9o-93" value="" style="edgeStyle=orthogonalEdgeStyle;rounded=0;orthogonalLoop=1;jettySize=auto;html=1;exitX=0.5;exitY=1;exitDx=0;exitDy=0;exitPerimeter=0;entryX=0.5;entryY=0;entryDx=0;entryDy=0;" parent="1" source="j1CahgC6rs7sGtYgRK9o-81" target="j1CahgC6rs7sGtYgRK9o-90" edge="1">
          <mxGeometry relative="1" as="geometry">
            <mxPoint x="240" y="834" as="sourcePoint" />
            <mxPoint x="415" y="927" as="targetPoint" />
          </mxGeometry>
        </mxCell>
        <mxCell id="j1CahgC6rs7sGtYgRK9o-96" value="Services" style="rounded=0;whiteSpace=wrap;html=1;fillColor=#dae8fc;gradientColor=#7ea6e0;strokeColor=#6c8ebf;" parent="1" vertex="1">
          <mxGeometry x="342" y="1038" width="120" height="54" as="geometry" />
        </mxCell>
        <mxCell id="j1CahgC6rs7sGtYgRK9o-104" value="Repositories" style="rounded=0;whiteSpace=wrap;html=1;fillColor=#e6d0de;gradientColor=#d5739d;strokeColor=#996185;" parent="1" vertex="1">
          <mxGeometry x="345" y="1288" width="120" height="60" as="geometry" />
        </mxCell>
        <mxCell id="j1CahgC6rs7sGtYgRK9o-119" value="Physical&lt;br&gt;Layer" style="rounded=0;whiteSpace=wrap;html=1;align=left;fillColor=#F5F5F5;strokeColor=#82b366;" parent="1" vertex="1">
          <mxGeometry x="10" y="1404" width="790" height="90" as="geometry" />
        </mxCell>
        <mxCell id="j1CahgC6rs7sGtYgRK9o-123" value="? (SQL, Stream, File, ...)" style="shape=flexArrow;endArrow=classic;html=1;rounded=0;exitX=0.5;exitY=1;exitDx=0;exitDy=0;entryX=0.5;entryY=0;entryDx=0;entryDy=0;width=17.27272727272727;endSize=7.518181818181817;endWidth=20.811249323958897;fillColor=#0050ef;strokeColor=#001DBC;" parent="1" source="j1CahgC6rs7sGtYgRK9o-69" target="j1CahgC6rs7sGtYgRK9o-119" edge="1">
          <mxGeometry x="-0.0244" y="75" width="50" height="50" relative="1" as="geometry">
            <mxPoint x="340" y="1523" as="sourcePoint" />
            <mxPoint x="390" y="1473" as="targetPoint" />
            <mxPoint as="offset" />
          </mxGeometry>
        </mxCell>
        <mxCell id="j1CahgC6rs7sGtYgRK9o-127" value="DTOs" style="shape=flexArrow;endArrow=classic;html=1;rounded=0;exitX=0.5;exitY=1;exitDx=0;exitDy=0;width=46.51162790697675;endSize=7.016279069767442;endWidth=20.811249323958897;fillColor=#ffe6cc;strokeColor=#d79b00;" parent="1" source="j1CahgC6rs7sGtYgRK9o-72" target="j1CahgC6rs7sGtYgRK9o-71" edge="1">
          <mxGeometry x="-0.0244" width="50" height="50" relative="1" as="geometry">
            <mxPoint x="415" y="1002" as="sourcePoint" />
            <mxPoint x="415" y="1043" as="targetPoint" />
            <mxPoint as="offset" />
          </mxGeometry>
        </mxCell>
        <mxCell id="j1CahgC6rs7sGtYgRK9o-128" value="Collaborators" style="rounded=0;whiteSpace=wrap;html=1;fillColor=#d5e8d4;gradientColor=#97d077;strokeColor=#82b366;" parent="1" vertex="1">
          <mxGeometry x="345" y="1184" width="120" height="60" as="geometry" />
        </mxCell>
        <mxCell id="j1CahgC6rs7sGtYgRK9o-129" value="BOs" style="shape=flexArrow;endArrow=classic;html=1;rounded=0;exitX=0.5;exitY=1;exitDx=0;exitDy=0;width=46.51162790697675;endSize=7.016279069767442;endWidth=20.811249323958897;entryX=0.5;entryY=0;entryDx=0;entryDy=0;fillColor=#d5e8d4;strokeColor=#82b366;" parent="1" source="j1CahgC6rs7sGtYgRK9o-71" target="j1CahgC6rs7sGtYgRK9o-70" edge="1">
          <mxGeometry x="-0.0244" width="50" height="50" relative="1" as="geometry">
            <mxPoint x="401.68" y="1113" as="sourcePoint" />
            <mxPoint x="401.68" y="1172" as="targetPoint" />
            <mxPoint as="offset" />
          </mxGeometry>
        </mxCell>
        <mxCell id="j1CahgC6rs7sGtYgRK9o-130" value="BOs" style="shape=flexArrow;endArrow=classic;html=1;rounded=0;exitX=0.5;exitY=1;exitDx=0;exitDy=0;width=46.51162790697675;endSize=7.016279069767442;endWidth=20.811249323958897;entryX=0.5;entryY=0;entryDx=0;entryDy=0;fillColor=#d5e8d4;strokeColor=#82b366;" parent="1" source="j1CahgC6rs7sGtYgRK9o-128" target="j1CahgC6rs7sGtYgRK9o-69" edge="1">
          <mxGeometry x="-0.0244" width="50" height="50" relative="1" as="geometry">
            <mxPoint x="445.55" y="1271" as="sourcePoint" />
            <mxPoint x="445.55" y="1327" as="targetPoint" />
            <mxPoint as="offset" />
          </mxGeometry>
        </mxCell>
        <mxCell id="j1CahgC6rs7sGtYgRK9o-131" value="BOs" style="shape=flexArrow;endArrow=classic;html=1;rounded=0;exitX=0.36;exitY=0.993;exitDx=0;exitDy=0;width=46.51162790697675;endSize=7.016279069767442;endWidth=20.811249323958897;entryX=0.36;entryY=0.011;entryDx=0;entryDy=0;exitPerimeter=0;entryPerimeter=0;fillColor=#d5e8d4;strokeColor=#82b366;" parent="1" source="j1CahgC6rs7sGtYgRK9o-71" target="j1CahgC6rs7sGtYgRK9o-69" edge="1">
          <mxGeometry x="-0.7352" y="1" width="50" height="50" relative="1" as="geometry">
            <mxPoint x="415" y="1269" as="sourcePoint" />
            <mxPoint x="415" y="1322" as="targetPoint" />
            <mxPoint as="offset" />
          </mxGeometry>
        </mxCell>
        <mxCell id="j1CahgC6rs7sGtYgRK9o-132" value="Tables&lt;br&gt;Files&lt;br&gt;Documents&lt;br&gt;Key-value Pairs" style="rounded=0;whiteSpace=wrap;html=1;fillColor=#f5f5f5;gradientColor=#b3b3b3;strokeColor=#666666;" parent="1" vertex="1">
          <mxGeometry x="345" y="1419" width="120" height="60" as="geometry" />
        </mxCell>
        <mxCell id="j1CahgC6rs7sGtYgRK9o-133" value="Channel security" style="rounded=1;whiteSpace=wrap;html=1;fillColor=#dae8fc;strokeColor=#6c8ebf;" parent="1" vertex="1">
          <mxGeometry x="586.1700000000001" y="910" width="95.8" height="28" as="geometry" />
        </mxCell>
        <mxCell id="j1CahgC6rs7sGtYgRK9o-136" value="Data Validation" style="rounded=1;whiteSpace=wrap;html=1;rotation=-90;fillColor=#dae8fc;strokeColor=#6c8ebf;" parent="1" vertex="1">
          <mxGeometry x="541.2" y="1000" width="95.1" height="28" as="geometry" />
        </mxCell>
        <mxCell id="j1CahgC6rs7sGtYgRK9o-138" value="AuthZ" style="rounded=1;whiteSpace=wrap;html=1;rotation=-90;fillColor=#dae8fc;strokeColor=#6c8ebf;" parent="1" vertex="1">
          <mxGeometry x="633.48" y="1000" width="95.1" height="28" as="geometry" />
        </mxCell>
        <mxCell id="j1CahgC6rs7sGtYgRK9o-139" value="AuthN" style="rounded=1;whiteSpace=wrap;html=1;rotation=-90;fillColor=#dae8fc;strokeColor=#6c8ebf;" parent="1" vertex="1">
          <mxGeometry x="586.53" y="1000" width="95.1" height="28" as="geometry" />
        </mxCell>
        <mxCell id="j1CahgC6rs7sGtYgRK9o-140" value="Multi-tenancy concerns&amp;nbsp; &amp;nbsp; &amp;nbsp; &amp;nbsp; &amp;nbsp; &amp;nbsp; &amp;nbsp; &amp;nbsp; &amp;nbsp; &amp;nbsp; &amp;nbsp; &amp;nbsp; &amp;nbsp; &amp;nbsp; &amp;nbsp; &amp;nbsp;" style="rounded=1;whiteSpace=wrap;html=1;rotation=-90;fillColor=#dae8fc;strokeColor=#6c8ebf;" parent="1" vertex="1">
          <mxGeometry x="594.28" y="1089.93" width="275.65" height="28" as="geometry" />
        </mxCell>
        <mxCell id="j1CahgC6rs7sGtYgRK9o-141" value="Transaction Management" style="rounded=1;whiteSpace=wrap;html=1;rotation=-90;fillColor=#dae8fc;strokeColor=#6c8ebf;" parent="1" vertex="1">
          <mxGeometry x="568.25" y="1265.85" width="409.5" height="28" as="geometry" />
        </mxCell>
        <mxCell id="j1CahgC6rs7sGtYgRK9o-94" value="Transaction Boundary" style="endArrow=none;dashed=1;html=1;rounded=0;" parent="1" edge="1">
          <mxGeometry x="-0.5696" width="50" height="50" relative="1" as="geometry">
            <mxPoint x="80" y="1072" as="sourcePoint" />
            <mxPoint x="790" y="1072" as="targetPoint" />
            <mxPoint as="offset" />
          </mxGeometry>
        </mxCell>
        <mxCell id="j1CahgC6rs7sGtYgRK9o-142" value="Business Logic" style="rounded=1;whiteSpace=wrap;html=1;rotation=-90;fillColor=#dae8fc;strokeColor=#6c8ebf;" parent="1" vertex="1">
          <mxGeometry x="48" y="1151" width="153" height="28" as="geometry" />
        </mxCell>
        <mxCell id="j1CahgC6rs7sGtYgRK9o-143" value="Data storage and retrieval logic" style="rounded=1;whiteSpace=wrap;html=1;rotation=0;fillColor=#dae8fc;strokeColor=#6c8ebf;" parent="1" vertex="1">
          <mxGeometry x="111" y="1303" width="163" height="39" as="geometry" />
        </mxCell>
        <mxCell id="j1CahgC6rs7sGtYgRK9o-144" value="Persistence &lt;br&gt;Layer" style="rounded=0;whiteSpace=wrap;html=1;align=left;fillColor=#f5f5f5;fontColor=#333333;strokeColor=#666666;" parent="1" vertex="1">
          <mxGeometry x="15" y="2252" width="790" height="90" as="geometry" />
        </mxCell>
        <mxCell id="j1CahgC6rs7sGtYgRK9o-145" value="Collaborators&lt;br&gt;Layer" style="rounded=0;whiteSpace=wrap;html=1;align=left;fillColor=#f5f5f5;fontColor=#333333;strokeColor=#666666;" parent="1" vertex="1">
          <mxGeometry x="15" y="2140" width="790" height="90" as="geometry" />
        </mxCell>
        <mxCell id="j1CahgC6rs7sGtYgRK9o-146" value="Services&lt;br&gt;Layer" style="rounded=0;whiteSpace=wrap;html=1;align=left;fillColor=#f5f5f5;fontColor=#333333;strokeColor=#666666;" parent="1" vertex="1">
          <mxGeometry x="15" y="2000" width="790" height="130" as="geometry" />
        </mxCell>
        <mxCell id="j1CahgC6rs7sGtYgRK9o-163" value="Facades (APIs)" style="rounded=0;whiteSpace=wrap;html=1;fillColor=#dae8fc;gradientColor=#7ea6e0;strokeColor=#6c8ebf;" parent="1" vertex="1">
          <mxGeometry x="81" y="2020" width="709" height="30" as="geometry" />
        </mxCell>
        <mxCell id="j1CahgC6rs7sGtYgRK9o-164" value="Repositories" style="rounded=0;whiteSpace=wrap;html=1;fillColor=#e6d0de;gradientColor=#d5739d;strokeColor=#996185;" parent="1" vertex="1">
          <mxGeometry x="350" y="2267" width="120" height="60" as="geometry" />
        </mxCell>
        <mxCell id="j1CahgC6rs7sGtYgRK9o-165" value="Physical&lt;br&gt;Layer" style="rounded=0;whiteSpace=wrap;html=1;align=left;fillColor=#f5f5f5;fontColor=#333333;strokeColor=#666666;" parent="1" vertex="1">
          <mxGeometry x="15" y="2383" width="790" height="90" as="geometry" />
        </mxCell>
        <mxCell id="j1CahgC6rs7sGtYgRK9o-166" value="? (SQL, Stream, File, ...)" style="shape=flexArrow;endArrow=classic;html=1;rounded=0;exitX=0.5;exitY=1;exitDx=0;exitDy=0;entryX=0.5;entryY=0;entryDx=0;entryDy=0;width=17.27272727272727;endSize=7.518181818181817;endWidth=20.811249323958897;fillColor=#0050ef;strokeColor=#001DBC;" parent="1" edge="1">
          <mxGeometry x="-0.0244" y="75" width="50" height="50" relative="1" as="geometry">
            <mxPoint x="411" y="2342" as="sourcePoint" />
            <mxPoint x="411" y="2383" as="targetPoint" />
            <mxPoint as="offset" />
          </mxGeometry>
        </mxCell>
        <mxCell id="j1CahgC6rs7sGtYgRK9o-168" value="Collaborators" style="rounded=0;whiteSpace=wrap;html=1;fillColor=#d5e8d4;gradientColor=#97d077;strokeColor=#82b366;" parent="1" vertex="1">
          <mxGeometry x="350" y="2155" width="120" height="60" as="geometry" />
        </mxCell>
        <mxCell id="j1CahgC6rs7sGtYgRK9o-170" value="BOs" style="shape=flexArrow;endArrow=classic;html=1;rounded=0;exitX=0.5;exitY=1;exitDx=0;exitDy=0;width=46.51162790697675;endSize=7.016279069767442;endWidth=20.811249323958897;entryX=0.5;entryY=0;entryDx=0;entryDy=0;fillColor=#d5e8d4;strokeColor=#82b366;" parent="1" source="j1CahgC6rs7sGtYgRK9o-168" target="j1CahgC6rs7sGtYgRK9o-144" edge="1">
          <mxGeometry x="-0.0244" width="50" height="50" relative="1" as="geometry">
            <mxPoint x="450.55" y="2242" as="sourcePoint" />
            <mxPoint x="450.55" y="2298" as="targetPoint" />
            <mxPoint as="offset" />
          </mxGeometry>
        </mxCell>
        <mxCell id="j1CahgC6rs7sGtYgRK9o-172" value="Tables&lt;br&gt;Files&lt;br&gt;Documents&lt;br&gt;Key-value Pairs" style="rounded=0;whiteSpace=wrap;html=1;fillColor=#f5f5f5;gradientColor=#b3b3b3;strokeColor=#666666;" parent="1" vertex="1">
          <mxGeometry x="350" y="2398" width="120" height="60" as="geometry" />
        </mxCell>
        <mxCell id="j1CahgC6rs7sGtYgRK9o-181" value="Data storage and retrieval logic" style="rounded=1;whiteSpace=wrap;html=1;rotation=0;fillColor=#dae8fc;strokeColor=#6c8ebf;" parent="1" vertex="1">
          <mxGeometry x="562.6800000000001" y="2277.5" width="163" height="39" as="geometry" />
        </mxCell>
        <mxCell id="j1CahgC6rs7sGtYgRK9o-186" value="DTO to BO mapping" style="rounded=0;whiteSpace=wrap;html=1;fillColor=#dae8fc;strokeColor=#6c8ebf;labelPosition=center;verticalLabelPosition=middle;align=center;verticalAlign=middle;" parent="1" vertex="1">
          <mxGeometry x="80" y="2084" width="190" height="30" as="geometry" />
        </mxCell>
        <mxCell id="j1CahgC6rs7sGtYgRK9o-179" value="Transaction Boundary" style="endArrow=none;dashed=1;html=1;rounded=0;align=right;" parent="1" edge="1">
          <mxGeometry x="0.5421" y="1" width="50" height="50" relative="1" as="geometry">
            <mxPoint x="80" y="2066" as="sourcePoint" />
            <mxPoint x="804" y="2066" as="targetPoint" />
            <mxPoint as="offset" />
          </mxGeometry>
        </mxCell>
        <mxCell id="j1CahgC6rs7sGtYgRK9o-187" value="Collaborators Orchestration" style="rounded=0;whiteSpace=wrap;html=1;fillColor=#dae8fc;strokeColor=#6c8ebf;" parent="1" vertex="1">
          <mxGeometry x="329" y="2079" width="150" height="30" as="geometry" />
        </mxCell>
        <mxCell id="j1CahgC6rs7sGtYgRK9o-169" value="BOs" style="shape=flexArrow;endArrow=classic;html=1;rounded=0;width=46.51162790697675;endSize=7.016279069767442;endWidth=20.811249323958897;fillColor=#d5e8d4;strokeColor=#82b366;entryX=0;entryY=0;entryDx=0;entryDy=0;exitX=1;exitY=1;exitDx=0;exitDy=0;" parent="1" source="j1CahgC6rs7sGtYgRK9o-186" target="j1CahgC6rs7sGtYgRK9o-168" edge="1">
          <mxGeometry x="-0.0244" width="50" height="50" relative="1" as="geometry">
            <mxPoint x="299" y="2097" as="sourcePoint" />
            <mxPoint x="299" y="2167" as="targetPoint" />
            <mxPoint as="offset" />
          </mxGeometry>
        </mxCell>
        <mxCell id="j1CahgC6rs7sGtYgRK9o-171" value="BOs" style="shape=flexArrow;endArrow=classic;html=1;rounded=0;width=46.51162790697675;endSize=7.016279069767442;endWidth=20.811249323958897;fillColor=#d5e8d4;strokeColor=#82b366;exitX=0.5;exitY=1;exitDx=0;exitDy=0;" parent="1" source="j1CahgC6rs7sGtYgRK9o-186" edge="1">
          <mxGeometry x="-0.7352" y="1" width="50" height="50" relative="1" as="geometry">
            <mxPoint x="182.41" y="2118.5" as="sourcePoint" />
            <mxPoint x="175" y="2251" as="targetPoint" />
            <mxPoint as="offset" />
          </mxGeometry>
        </mxCell>
        <mxCell id="j1CahgC6rs7sGtYgRK9o-167" value="DTOs" style="shape=flexArrow;endArrow=block;html=1;rounded=0;width=46.51162790697675;endSize=7.016279069767442;endWidth=20.811249323958897;fillColor=#ffe6cc;strokeColor=#d79b00;entryX=0.859;entryY=0.018;entryDx=0;entryDy=0;entryPerimeter=0;exitX=0.288;exitY=0.993;exitDx=0;exitDy=0;exitPerimeter=0;" parent="1" source="j1CahgC6rs7sGtYgRK9o-189" target="j1CahgC6rs7sGtYgRK9o-186" edge="1">
          <mxGeometry x="-0.025" width="50" height="50" relative="1" as="geometry">
            <mxPoint x="363" y="1900" as="sourcePoint" />
            <mxPoint x="365.5" y="1984" as="targetPoint" />
            <mxPoint as="offset" />
          </mxGeometry>
        </mxCell>
        <mxCell id="j1CahgC6rs7sGtYgRK9o-178" value="Transaction Management" style="rounded=1;whiteSpace=wrap;html=1;rotation=-90;fillColor=#dae8fc;strokeColor=#6c8ebf;" parent="1" vertex="1">
          <mxGeometry x="586.17" y="2253" width="385.53" height="28" as="geometry" />
        </mxCell>
        <mxCell id="j1CahgC6rs7sGtYgRK9o-189" value="Frontend&lt;br&gt;Layer" style="rounded=0;whiteSpace=wrap;html=1;align=left;fillColor=#f5f5f5;fontColor=#333333;strokeColor=#666666;" parent="1" vertex="1">
          <mxGeometry x="16" y="1862" width="790" height="90" as="geometry" />
        </mxCell>
        <mxCell id="j1CahgC6rs7sGtYgRK9o-190" value="Consumers" style="rounded=0;whiteSpace=wrap;html=1;align=left;fillColor=#f5f5f5;fontColor=#333333;strokeColor=#666666;" parent="1" vertex="1">
          <mxGeometry x="16" y="1730" width="790" height="90" as="geometry" />
        </mxCell>
        <mxCell id="j1CahgC6rs7sGtYgRK9o-191" value="" style="edgeStyle=orthogonalEdgeStyle;rounded=0;orthogonalLoop=1;jettySize=auto;html=1;" parent="1" source="j1CahgC6rs7sGtYgRK9o-192" target="j1CahgC6rs7sGtYgRK9o-199" edge="1">
          <mxGeometry relative="1" as="geometry" />
        </mxCell>
        <mxCell id="j1CahgC6rs7sGtYgRK9o-192" value="Users" style="sketch=0;outlineConnect=0;fontColor=#232F3E;gradientColor=none;fillColor=#232F3D;strokeColor=none;dashed=0;verticalLabelPosition=top;verticalAlign=bottom;align=center;html=1;fontSize=12;fontStyle=0;aspect=fixed;pointerEvents=1;shape=mxgraph.aws4.users;labelPosition=center;" parent="1" vertex="1">
          <mxGeometry x="194" y="1757" width="50" height="50" as="geometry" />
        </mxCell>
        <mxCell id="j1CahgC6rs7sGtYgRK9o-193" value="" style="edgeStyle=orthogonalEdgeStyle;rounded=0;orthogonalLoop=1;jettySize=auto;html=1;entryX=0.5;entryY=0;entryDx=0;entryDy=0;exitX=0.5;exitY=1;exitDx=0;exitDy=0;exitPerimeter=0;" parent="1" source="j1CahgC6rs7sGtYgRK9o-194" target="j1CahgC6rs7sGtYgRK9o-200" edge="1">
          <mxGeometry relative="1" as="geometry">
            <Array as="points">
              <mxPoint x="320" y="1797" />
              <mxPoint x="320" y="1877" />
            </Array>
          </mxGeometry>
        </mxCell>
        <mxCell id="j1CahgC6rs7sGtYgRK9o-194" value="" style="verticalLabelPosition=bottom;html=1;verticalAlign=top;align=center;strokeColor=none;fillColor=#00BEF2;shape=mxgraph.azure.laptop;pointerEvents=1;movable=1;resizable=1;rotatable=1;deletable=1;editable=1;locked=0;connectable=1;" parent="1" vertex="1">
          <mxGeometry x="296" y="1767" width="50" height="30" as="geometry" />
        </mxCell>
        <mxCell id="j1CahgC6rs7sGtYgRK9o-195" value="" style="edgeStyle=orthogonalEdgeStyle;rounded=0;orthogonalLoop=1;jettySize=auto;html=1;entryX=0.5;entryY=0;entryDx=0;entryDy=0;" parent="1" source="j1CahgC6rs7sGtYgRK9o-196" target="j1CahgC6rs7sGtYgRK9o-201" edge="1">
          <mxGeometry relative="1" as="geometry">
            <Array as="points">
              <mxPoint x="424" y="1840" />
              <mxPoint x="424" y="1840" />
            </Array>
          </mxGeometry>
        </mxCell>
        <mxCell id="j1CahgC6rs7sGtYgRK9o-196" value="" style="image;html=1;image=img/lib/clip_art/computers/Server_Rack_128x128.png" parent="1" vertex="1">
          <mxGeometry x="396" y="1754.5" width="56" height="55" as="geometry" />
        </mxCell>
        <mxCell id="j1CahgC6rs7sGtYgRK9o-197" value="Devices" style="outlineConnect=0;dashed=0;verticalLabelPosition=top;verticalAlign=bottom;align=center;html=1;shape=mxgraph.aws3.sensor;fillColor=#5294CF;gradientColor=none;labelPosition=center;" parent="1" vertex="1">
          <mxGeometry x="503.79999999999995" y="1757" width="44.2" height="52" as="geometry" />
        </mxCell>
        <mxCell id="j1CahgC6rs7sGtYgRK9o-198" value="&lt;meta charset=&quot;utf-8&quot;&gt;&lt;span style=&quot;color: rgb(0, 0, 0); font-family: Helvetica; font-size: 12px; font-style: normal; font-variant-ligatures: normal; font-variant-caps: normal; font-weight: 400; letter-spacing: normal; orphans: 2; text-align: center; text-indent: 0px; text-transform: none; widows: 2; word-spacing: 0px; -webkit-text-stroke-width: 0px; background-color: rgb(251, 251, 251); text-decoration-thickness: initial; text-decoration-style: initial; text-decoration-color: initial; float: none; display: inline !important;&quot;&gt;External systems&lt;/span&gt;" style="text;html=1;strokeColor=none;fillColor=none;align=center;verticalAlign=middle;whiteSpace=wrap;rounded=0;" parent="1" vertex="1">
          <mxGeometry x="300" y="1737" width="120" height="30" as="geometry" />
        </mxCell>
        <mxCell id="j1CahgC6rs7sGtYgRK9o-199" value="UI" style="rounded=0;whiteSpace=wrap;html=1;fillColor=#ffcd28;strokeColor=#d79b00;gradientColor=#ffa500;" parent="1" vertex="1">
          <mxGeometry x="179" y="1877" width="80" height="60" as="geometry" />
        </mxCell>
        <mxCell id="j1CahgC6rs7sGtYgRK9o-200" value="Rest API" style="rounded=0;whiteSpace=wrap;html=1;fillColor=#ffcd28;strokeColor=#d79b00;gradientColor=#ffa500;" parent="1" vertex="1">
          <mxGeometry x="280" y="1877" width="82" height="60" as="geometry" />
        </mxCell>
        <mxCell id="j1CahgC6rs7sGtYgRK9o-201" value="Route" style="rounded=0;whiteSpace=wrap;html=1;fillColor=#ffcd28;strokeColor=#d79b00;gradientColor=#ffa500;" parent="1" vertex="1">
          <mxGeometry x="388" y="1877" width="72" height="60" as="geometry" />
        </mxCell>
        <mxCell id="j1CahgC6rs7sGtYgRK9o-202" value="MQTT" style="rounded=0;whiteSpace=wrap;html=1;fillColor=#ffcd28;strokeColor=#d79b00;gradientColor=#ffa500;" parent="1" vertex="1">
          <mxGeometry x="493.79999999999995" y="1877" width="64.2" height="60" as="geometry" />
        </mxCell>
        <mxCell id="j1CahgC6rs7sGtYgRK9o-203" value="" style="edgeStyle=orthogonalEdgeStyle;rounded=0;orthogonalLoop=1;jettySize=auto;html=1;entryX=0.5;entryY=0;entryDx=0;entryDy=0;exitX=0.5;exitY=1;exitDx=0;exitDy=0;exitPerimeter=0;" parent="1" source="j1CahgC6rs7sGtYgRK9o-194" target="j1CahgC6rs7sGtYgRK9o-201" edge="1">
          <mxGeometry relative="1" as="geometry">
            <mxPoint x="347" y="1794" as="sourcePoint" />
            <mxPoint x="347" y="1887" as="targetPoint" />
            <Array as="points">
              <mxPoint x="321" y="1840" />
              <mxPoint x="424" y="1840" />
            </Array>
          </mxGeometry>
        </mxCell>
        <mxCell id="j1CahgC6rs7sGtYgRK9o-204" value="" style="edgeStyle=orthogonalEdgeStyle;rounded=0;orthogonalLoop=1;jettySize=auto;html=1;exitX=0.5;exitY=1;exitDx=0;exitDy=0;exitPerimeter=0;entryX=0.5;entryY=0;entryDx=0;entryDy=0;" parent="1" source="j1CahgC6rs7sGtYgRK9o-197" target="j1CahgC6rs7sGtYgRK9o-202" edge="1">
          <mxGeometry relative="1" as="geometry">
            <mxPoint x="246" y="1794" as="sourcePoint" />
            <mxPoint x="421" y="1887" as="targetPoint" />
          </mxGeometry>
        </mxCell>
        <mxCell id="j1CahgC6rs7sGtYgRK9o-206" value="Channel security" style="rounded=1;whiteSpace=wrap;html=1;fillColor=#dae8fc;strokeColor=#6c8ebf;" parent="1" vertex="1">
          <mxGeometry x="618.4000000000001" y="1893" width="95.8" height="28" as="geometry" />
        </mxCell>
        <mxCell id="j1CahgC6rs7sGtYgRK9o-213" value="Persistence &lt;br&gt;Layer" style="rounded=0;whiteSpace=wrap;html=1;align=left;fillColor=#f5f5f5;fontColor=#333333;strokeColor=#666666;" parent="1" vertex="1">
          <mxGeometry x="-820" y="1273" width="550" height="90" as="geometry" />
        </mxCell>
        <mxCell id="j1CahgC6rs7sGtYgRK9o-214" value="Collaborators&lt;br&gt;Layer" style="rounded=0;whiteSpace=wrap;html=1;align=left;fillColor=#f5f5f5;fontColor=#333333;strokeColor=#666666;" parent="1" vertex="1">
          <mxGeometry x="-820" y="1169" width="550" height="90" as="geometry" />
        </mxCell>
        <mxCell id="j1CahgC6rs7sGtYgRK9o-215" value="Services&lt;br&gt;Layer" style="rounded=0;whiteSpace=wrap;html=1;align=left;fillColor=#f5f5f5;fontColor=#333333;strokeColor=#666666;" parent="1" vertex="1">
          <mxGeometry x="-820" y="1023" width="550" height="90" as="geometry" />
        </mxCell>
        <mxCell id="j1CahgC6rs7sGtYgRK9o-216" value="Presentation &lt;br&gt;Layer" style="rounded=0;whiteSpace=wrap;html=1;align=left;fillColor=#f5f5f5;fontColor=#333333;strokeColor=#666666;" parent="1" vertex="1">
          <mxGeometry x="-820" y="902" width="550" height="90" as="geometry" />
        </mxCell>
        <mxCell id="j1CahgC6rs7sGtYgRK9o-217" value="Consumers" style="rounded=0;whiteSpace=wrap;html=1;align=left;fillColor=#f5f5f5;fontColor=#333333;strokeColor=#666666;" parent="1" vertex="1">
          <mxGeometry x="-820" y="770" width="550" height="90" as="geometry" />
        </mxCell>
        <mxCell id="j1CahgC6rs7sGtYgRK9o-218" value="" style="edgeStyle=orthogonalEdgeStyle;rounded=0;orthogonalLoop=1;jettySize=auto;html=1;" parent="1" source="j1CahgC6rs7sGtYgRK9o-219" target="j1CahgC6rs7sGtYgRK9o-226" edge="1">
          <mxGeometry relative="1" as="geometry" />
        </mxCell>
        <mxCell id="j1CahgC6rs7sGtYgRK9o-219" value="Users" style="sketch=0;outlineConnect=0;fontColor=#232F3E;gradientColor=none;fillColor=#232F3D;strokeColor=none;dashed=0;verticalLabelPosition=top;verticalAlign=bottom;align=center;html=1;fontSize=12;fontStyle=0;aspect=fixed;pointerEvents=1;shape=mxgraph.aws4.users;labelPosition=center;" parent="1" vertex="1">
          <mxGeometry x="-642" y="797" width="50" height="50" as="geometry" />
        </mxCell>
        <mxCell id="j1CahgC6rs7sGtYgRK9o-220" value="" style="edgeStyle=orthogonalEdgeStyle;rounded=0;orthogonalLoop=1;jettySize=auto;html=1;entryX=0.5;entryY=0;entryDx=0;entryDy=0;exitX=0.5;exitY=1;exitDx=0;exitDy=0;exitPerimeter=0;" parent="1" source="j1CahgC6rs7sGtYgRK9o-221" target="j1CahgC6rs7sGtYgRK9o-227" edge="1">
          <mxGeometry relative="1" as="geometry">
            <Array as="points">
              <mxPoint x="-516" y="837" />
              <mxPoint x="-516" y="917" />
            </Array>
          </mxGeometry>
        </mxCell>
        <mxCell id="j1CahgC6rs7sGtYgRK9o-221" value="" style="verticalLabelPosition=bottom;html=1;verticalAlign=top;align=center;strokeColor=none;fillColor=#00BEF2;shape=mxgraph.azure.laptop;pointerEvents=1;movable=1;resizable=1;rotatable=1;deletable=1;editable=1;locked=0;connectable=1;" parent="1" vertex="1">
          <mxGeometry x="-540" y="807" width="50" height="30" as="geometry" />
        </mxCell>
        <mxCell id="j1CahgC6rs7sGtYgRK9o-222" value="" style="edgeStyle=orthogonalEdgeStyle;rounded=0;orthogonalLoop=1;jettySize=auto;html=1;entryX=0.5;entryY=0;entryDx=0;entryDy=0;" parent="1" source="j1CahgC6rs7sGtYgRK9o-223" target="j1CahgC6rs7sGtYgRK9o-228" edge="1">
          <mxGeometry relative="1" as="geometry">
            <Array as="points">
              <mxPoint x="-412" y="880" />
              <mxPoint x="-412" y="880" />
            </Array>
          </mxGeometry>
        </mxCell>
        <mxCell id="j1CahgC6rs7sGtYgRK9o-223" value="" style="image;html=1;image=img/lib/clip_art/computers/Server_Rack_128x128.png" parent="1" vertex="1">
          <mxGeometry x="-440" y="794.5" width="56" height="55" as="geometry" />
        </mxCell>
        <mxCell id="j1CahgC6rs7sGtYgRK9o-224" value="Devices" style="outlineConnect=0;dashed=0;verticalLabelPosition=top;verticalAlign=bottom;align=center;html=1;shape=mxgraph.aws3.sensor;fillColor=#5294CF;gradientColor=none;labelPosition=center;" parent="1" vertex="1">
          <mxGeometry x="-332.20000000000005" y="797" width="44.2" height="52" as="geometry" />
        </mxCell>
        <mxCell id="j1CahgC6rs7sGtYgRK9o-225" value="&lt;meta charset=&quot;utf-8&quot;&gt;&lt;span style=&quot;color: rgb(0, 0, 0); font-family: Helvetica; font-size: 12px; font-style: normal; font-variant-ligatures: normal; font-variant-caps: normal; font-weight: 400; letter-spacing: normal; orphans: 2; text-align: center; text-indent: 0px; text-transform: none; widows: 2; word-spacing: 0px; -webkit-text-stroke-width: 0px; background-color: rgb(251, 251, 251); text-decoration-thickness: initial; text-decoration-style: initial; text-decoration-color: initial; float: none; display: inline !important;&quot;&gt;External systems&lt;/span&gt;" style="text;html=1;strokeColor=none;fillColor=none;align=center;verticalAlign=middle;whiteSpace=wrap;rounded=0;" parent="1" vertex="1">
          <mxGeometry x="-536" y="777" width="120" height="30" as="geometry" />
        </mxCell>
        <mxCell id="j1CahgC6rs7sGtYgRK9o-226" value="UI" style="rounded=0;whiteSpace=wrap;html=1;fillColor=#ffcd28;strokeColor=#d79b00;gradientColor=#ffa500;" parent="1" vertex="1">
          <mxGeometry x="-657" y="917" width="80" height="60" as="geometry" />
        </mxCell>
        <mxCell id="j1CahgC6rs7sGtYgRK9o-227" value="Rest API" style="rounded=0;whiteSpace=wrap;html=1;fillColor=#ffcd28;strokeColor=#d79b00;gradientColor=#ffa500;" parent="1" vertex="1">
          <mxGeometry x="-556" y="917" width="82" height="60" as="geometry" />
        </mxCell>
        <mxCell id="j1CahgC6rs7sGtYgRK9o-228" value="Route" style="rounded=0;whiteSpace=wrap;html=1;fillColor=#ffcd28;strokeColor=#d79b00;gradientColor=#ffa500;" parent="1" vertex="1">
          <mxGeometry x="-448" y="917" width="72" height="60" as="geometry" />
        </mxCell>
        <mxCell id="j1CahgC6rs7sGtYgRK9o-229" value="MQTT" style="rounded=0;whiteSpace=wrap;html=1;fillColor=#ffcd28;strokeColor=#d79b00;gradientColor=#ffa500;" parent="1" vertex="1">
          <mxGeometry x="-342.20000000000005" y="917" width="64.2" height="60" as="geometry" />
        </mxCell>
        <mxCell id="j1CahgC6rs7sGtYgRK9o-230" value="" style="edgeStyle=orthogonalEdgeStyle;rounded=0;orthogonalLoop=1;jettySize=auto;html=1;entryX=0.5;entryY=0;entryDx=0;entryDy=0;exitX=0.5;exitY=1;exitDx=0;exitDy=0;exitPerimeter=0;" parent="1" source="j1CahgC6rs7sGtYgRK9o-221" target="j1CahgC6rs7sGtYgRK9o-228" edge="1">
          <mxGeometry relative="1" as="geometry">
            <mxPoint x="-489" y="834" as="sourcePoint" />
            <mxPoint x="-489" y="927" as="targetPoint" />
            <Array as="points">
              <mxPoint x="-515" y="880" />
              <mxPoint x="-412" y="880" />
            </Array>
          </mxGeometry>
        </mxCell>
        <mxCell id="j1CahgC6rs7sGtYgRK9o-231" value="" style="edgeStyle=orthogonalEdgeStyle;rounded=0;orthogonalLoop=1;jettySize=auto;html=1;exitX=0.5;exitY=1;exitDx=0;exitDy=0;exitPerimeter=0;entryX=0.5;entryY=0;entryDx=0;entryDy=0;" parent="1" source="j1CahgC6rs7sGtYgRK9o-224" target="j1CahgC6rs7sGtYgRK9o-229" edge="1">
          <mxGeometry relative="1" as="geometry">
            <mxPoint x="-590" y="834" as="sourcePoint" />
            <mxPoint x="-415" y="927" as="targetPoint" />
          </mxGeometry>
        </mxCell>
        <mxCell id="j1CahgC6rs7sGtYgRK9o-232" value="Services" style="rounded=0;whiteSpace=wrap;html=1;fillColor=#dae8fc;gradientColor=#7ea6e0;strokeColor=#6c8ebf;" parent="1" vertex="1">
          <mxGeometry x="-488" y="1038" width="120" height="54" as="geometry" />
        </mxCell>
        <mxCell id="j1CahgC6rs7sGtYgRK9o-233" value="Repositories" style="rounded=0;whiteSpace=wrap;html=1;fillColor=#e6d0de;gradientColor=#d5739d;strokeColor=#996185;" parent="1" vertex="1">
          <mxGeometry x="-485" y="1288" width="120" height="60" as="geometry" />
        </mxCell>
        <mxCell id="j1CahgC6rs7sGtYgRK9o-234" value="Physical&lt;br&gt;Layer" style="rounded=0;whiteSpace=wrap;html=1;align=left;fillColor=#f5f5f5;fontColor=#333333;strokeColor=#666666;" parent="1" vertex="1">
          <mxGeometry x="-820" y="1404" width="550" height="90" as="geometry" />
        </mxCell>
        <mxCell id="j1CahgC6rs7sGtYgRK9o-235" value="? (SQL, Stream, File, ...)" style="shape=flexArrow;endArrow=classic;html=1;rounded=0;exitX=0.5;exitY=1;exitDx=0;exitDy=0;entryX=0.5;entryY=0;entryDx=0;entryDy=0;width=17.27272727272727;endSize=7.518181818181817;endWidth=20.811249323958897;fillColor=#0050ef;strokeColor=#001DBC;" parent="1" source="j1CahgC6rs7sGtYgRK9o-213" target="j1CahgC6rs7sGtYgRK9o-234" edge="1">
          <mxGeometry x="-0.0244" y="75" width="50" height="50" relative="1" as="geometry">
            <mxPoint x="-490" y="1523" as="sourcePoint" />
            <mxPoint x="-440" y="1473" as="targetPoint" />
            <mxPoint as="offset" />
          </mxGeometry>
        </mxCell>
        <mxCell id="j1CahgC6rs7sGtYgRK9o-236" value="DTOs" style="shape=flexArrow;endArrow=classic;html=1;rounded=0;exitX=0.5;exitY=1;exitDx=0;exitDy=0;width=46.51162790697675;endSize=7.016279069767442;endWidth=20.811249323958897;fillColor=#ffe6cc;strokeColor=#d79b00;" parent="1" source="j1CahgC6rs7sGtYgRK9o-216" target="j1CahgC6rs7sGtYgRK9o-215" edge="1">
          <mxGeometry x="-0.0244" width="50" height="50" relative="1" as="geometry">
            <mxPoint x="-415" y="1002" as="sourcePoint" />
            <mxPoint x="-415" y="1043" as="targetPoint" />
            <mxPoint as="offset" />
          </mxGeometry>
        </mxCell>
        <mxCell id="j1CahgC6rs7sGtYgRK9o-237" value="Collaborators" style="rounded=0;whiteSpace=wrap;html=1;fillColor=#d5e8d4;gradientColor=#97d077;strokeColor=#82b366;" parent="1" vertex="1">
          <mxGeometry x="-485" y="1184" width="120" height="60" as="geometry" />
        </mxCell>
        <mxCell id="j1CahgC6rs7sGtYgRK9o-238" value="BOs" style="shape=flexArrow;endArrow=classic;html=1;rounded=0;exitX=0.5;exitY=1;exitDx=0;exitDy=0;width=46.51162790697675;endSize=7.016279069767442;endWidth=20.811249323958897;entryX=0.5;entryY=0;entryDx=0;entryDy=0;fillColor=#d5e8d4;strokeColor=#82b366;" parent="1" source="j1CahgC6rs7sGtYgRK9o-215" target="j1CahgC6rs7sGtYgRK9o-214" edge="1">
          <mxGeometry x="-0.0244" width="50" height="50" relative="1" as="geometry">
            <mxPoint x="-428.32" y="1113" as="sourcePoint" />
            <mxPoint x="-428.32" y="1172" as="targetPoint" />
            <mxPoint as="offset" />
          </mxGeometry>
        </mxCell>
        <mxCell id="j1CahgC6rs7sGtYgRK9o-239" value="BOs" style="shape=flexArrow;endArrow=classic;html=1;rounded=0;exitX=0.5;exitY=1;exitDx=0;exitDy=0;width=46.51162790697675;endSize=7.016279069767442;endWidth=20.811249323958897;fillColor=#d5e8d4;strokeColor=#82b366;" parent="1" source="j1CahgC6rs7sGtYgRK9o-237" edge="1">
          <mxGeometry x="-0.073" y="3" width="50" height="50" relative="1" as="geometry">
            <mxPoint x="-384.45" y="1271" as="sourcePoint" />
            <mxPoint x="-425" y="1270" as="targetPoint" />
            <mxPoint as="offset" />
          </mxGeometry>
        </mxCell>
        <mxCell id="j1CahgC6rs7sGtYgRK9o-240" value="BOs" style="shape=flexArrow;endArrow=classic;html=1;rounded=0;exitX=0.36;exitY=0.993;exitDx=0;exitDy=0;width=46.51162790697675;endSize=7.016279069767442;endWidth=20.811249323958897;entryX=0.36;entryY=0.011;entryDx=0;entryDy=0;exitPerimeter=0;entryPerimeter=0;fillColor=#d5e8d4;strokeColor=#82b366;" parent="1" source="j1CahgC6rs7sGtYgRK9o-215" target="j1CahgC6rs7sGtYgRK9o-213" edge="1">
          <mxGeometry x="-0.7352" y="1" width="50" height="50" relative="1" as="geometry">
            <mxPoint x="-415" y="1269" as="sourcePoint" />
            <mxPoint x="-415" y="1322" as="targetPoint" />
            <mxPoint as="offset" />
          </mxGeometry>
        </mxCell>
        <mxCell id="j1CahgC6rs7sGtYgRK9o-241" value="Tables&lt;br&gt;Files&lt;br&gt;Documents&lt;br&gt;Key-value Pairs" style="rounded=0;whiteSpace=wrap;html=1;fillColor=#f5f5f5;gradientColor=#b3b3b3;strokeColor=#666666;" parent="1" vertex="1">
          <mxGeometry x="-485" y="1419" width="120" height="60" as="geometry" />
        </mxCell>
        <mxCell id="m2VDShEJtUjdngg2nPHX-1" value="Service A" style="rounded=0;whiteSpace=wrap;html=1;verticalAlign=top;fillColor=#dae8fc;strokeColor=#6c8ebf;" parent="1" vertex="1">
          <mxGeometry x="-790" y="1650" width="220" height="160" as="geometry" />
        </mxCell>
        <mxCell id="m2VDShEJtUjdngg2nPHX-6" value="Public" style="shape=process;whiteSpace=wrap;html=1;backgroundOutline=1;verticalAlign=top;fillColor=#d5e8d4;strokeColor=#82b366;" parent="1" vertex="1">
          <mxGeometry x="-780" y="1680" width="200" height="120" as="geometry" />
        </mxCell>
        <mxCell id="m2VDShEJtUjdngg2nPHX-2" value="find" style="rounded=1;whiteSpace=wrap;html=1;" parent="1" vertex="1">
          <mxGeometry x="-750" y="1707" width="140" height="33" as="geometry" />
        </mxCell>
        <mxCell id="m2VDShEJtUjdngg2nPHX-3" value="update" style="rounded=1;whiteSpace=wrap;html=1;" parent="1" vertex="1">
          <mxGeometry x="-750" y="1754" width="140" height="33" as="geometry" />
        </mxCell>
        <mxCell id="m2VDShEJtUjdngg2nPHX-7" value="Service A" style="rounded=0;whiteSpace=wrap;html=1;verticalAlign=top;fillColor=#dae8fc;strokeColor=#6c8ebf;" parent="1" vertex="1">
          <mxGeometry x="-800" y="1840" width="460" height="160" as="geometry" />
        </mxCell>
        <mxCell id="m2VDShEJtUjdngg2nPHX-8" value="Public" style="shape=process;whiteSpace=wrap;html=1;backgroundOutline=1;verticalAlign=top;fillColor=#d5e8d4;strokeColor=#82b366;" parent="1" vertex="1">
          <mxGeometry x="-790" y="1870" width="210" height="120" as="geometry" />
        </mxCell>
        <mxCell id="m2VDShEJtUjdngg2nPHX-12" value="Private" style="shape=process;whiteSpace=wrap;html=1;backgroundOutline=1;verticalAlign=top;fillColor=#f8cecc;strokeColor=#b85450;" parent="1" vertex="1">
          <mxGeometry x="-560" y="1870" width="210" height="120" as="geometry" />
        </mxCell>
        <mxCell id="m2VDShEJtUjdngg2nPHX-9" value="find" style="rounded=1;whiteSpace=wrap;html=1;" parent="1" vertex="1">
          <mxGeometry x="-760" y="1897" width="140" height="33" as="geometry" />
        </mxCell>
        <mxCell id="m2VDShEJtUjdngg2nPHX-11" value="update" style="rounded=1;whiteSpace=wrap;html=1;" parent="1" vertex="1">
          <mxGeometry x="-760" y="1944" width="140" height="33" as="geometry" />
        </mxCell>
        <mxCell id="m2VDShEJtUjdngg2nPHX-13" value="doFind" style="rounded=1;whiteSpace=wrap;html=1;" parent="1" vertex="1">
          <mxGeometry x="-525" y="1919" width="140" height="33" as="geometry" />
        </mxCell>
        <mxCell id="m2VDShEJtUjdngg2nPHX-15" value="Service B" style="rounded=0;whiteSpace=wrap;html=1;verticalAlign=top;fillColor=#dae8fc;strokeColor=#6c8ebf;" parent="1" vertex="1">
          <mxGeometry x="-1038" y="1649.5" width="218" height="160" as="geometry" />
        </mxCell>
        <mxCell id="m2VDShEJtUjdngg2nPHX-16" value="Public" style="shape=process;whiteSpace=wrap;html=1;backgroundOutline=1;verticalAlign=top;fillColor=#d5e8d4;strokeColor=#82b366;" parent="1" vertex="1">
          <mxGeometry x="-1028" y="1679.5" width="198" height="120" as="geometry" />
        </mxCell>
        <mxCell id="m2VDShEJtUjdngg2nPHX-17" value="doStuff" style="rounded=1;whiteSpace=wrap;html=1;" parent="1" vertex="1">
          <mxGeometry x="-998" y="1706.5" width="140" height="33" as="geometry" />
        </mxCell>
        <mxCell id="m2VDShEJtUjdngg2nPHX-21" value="Service B" style="rounded=0;whiteSpace=wrap;html=1;verticalAlign=top;fillColor=#dae8fc;strokeColor=#6c8ebf;" parent="1" vertex="1">
          <mxGeometry x="-1040" y="1840" width="220" height="160" as="geometry" />
        </mxCell>
        <mxCell id="m2VDShEJtUjdngg2nPHX-22" value="Public" style="shape=process;whiteSpace=wrap;html=1;backgroundOutline=1;verticalAlign=top;fillColor=#d5e8d4;strokeColor=#82b366;" parent="1" vertex="1">
          <mxGeometry x="-1030" y="1870" width="200" height="120" as="geometry" />
        </mxCell>
        <mxCell id="m2VDShEJtUjdngg2nPHX-23" value="doStuff" style="rounded=1;whiteSpace=wrap;html=1;" parent="1" vertex="1">
          <mxGeometry x="-1000" y="1897" width="140" height="33" as="geometry" />
        </mxCell>
        <mxCell id="m2VDShEJtUjdngg2nPHX-26" value="Service A" style="rounded=0;whiteSpace=wrap;html=1;verticalAlign=top;fillColor=#dae8fc;strokeColor=#6c8ebf;" parent="1" vertex="1">
          <mxGeometry x="-800" y="2030" width="230" height="160" as="geometry" />
        </mxCell>
        <mxCell id="m2VDShEJtUjdngg2nPHX-27" value="Public" style="shape=process;whiteSpace=wrap;html=1;backgroundOutline=1;verticalAlign=top;fillColor=#d5e8d4;strokeColor=#82b366;" parent="1" vertex="1">
          <mxGeometry x="-790" y="2060" width="210" height="120" as="geometry" />
        </mxCell>
        <mxCell id="m2VDShEJtUjdngg2nPHX-30" value="find" style="rounded=1;whiteSpace=wrap;html=1;" parent="1" vertex="1">
          <mxGeometry x="-760" y="2087" width="140" height="33" as="geometry" />
        </mxCell>
        <mxCell id="m2VDShEJtUjdngg2nPHX-32" value="update" style="rounded=1;whiteSpace=wrap;html=1;" parent="1" vertex="1">
          <mxGeometry x="-760" y="2134" width="140" height="33" as="geometry" />
        </mxCell>
        <mxCell id="m2VDShEJtUjdngg2nPHX-34" value="Service B" style="rounded=0;whiteSpace=wrap;html=1;verticalAlign=top;fillColor=#dae8fc;strokeColor=#6c8ebf;" parent="1" vertex="1">
          <mxGeometry x="-1040" y="2030" width="220" height="160" as="geometry" />
        </mxCell>
        <mxCell id="m2VDShEJtUjdngg2nPHX-35" value="Public" style="shape=process;whiteSpace=wrap;html=1;backgroundOutline=1;verticalAlign=top;fillColor=#d5e8d4;strokeColor=#82b366;" parent="1" vertex="1">
          <mxGeometry x="-1030" y="2060" width="200" height="120" as="geometry" />
        </mxCell>
        <mxCell id="m2VDShEJtUjdngg2nPHX-36" value="doStuff" style="rounded=1;whiteSpace=wrap;html=1;" parent="1" vertex="1">
          <mxGeometry x="-1000" y="2087" width="140" height="33" as="geometry" />
        </mxCell>
        <mxCell id="m2VDShEJtUjdngg2nPHX-38" value="Collaborator" style="rounded=0;whiteSpace=wrap;html=1;verticalAlign=top;movable=1;resizable=1;rotatable=1;deletable=1;editable=1;locked=0;connectable=1;fillColor=#e1d5e7;strokeColor=#9673a6;" parent="1" vertex="1">
          <mxGeometry x="-887" y="2221" width="230" height="110" as="geometry" />
        </mxCell>
        <mxCell id="m2VDShEJtUjdngg2nPHX-39" value="Public" style="shape=process;whiteSpace=wrap;html=1;backgroundOutline=1;verticalAlign=top;movable=1;resizable=1;rotatable=1;deletable=1;editable=1;locked=0;connectable=1;fillColor=#d5e8d4;strokeColor=#82b366;" parent="1" vertex="1">
          <mxGeometry x="-877" y="2253" width="210" height="68" as="geometry" />
        </mxCell>
        <mxCell id="m2VDShEJtUjdngg2nPHX-40" value="find" style="rounded=1;whiteSpace=wrap;html=1;movable=1;resizable=1;rotatable=1;deletable=1;editable=1;locked=0;connectable=1;" parent="1" vertex="1">
          <mxGeometry x="-843" y="2280" width="140" height="33" as="geometry" />
        </mxCell>
        <mxCell id="m2VDShEJtUjdngg2nPHX-5" value="" style="edgeStyle=orthogonalEdgeStyle;rounded=0;orthogonalLoop=1;jettySize=auto;html=1;entryX=1;entryY=0.5;entryDx=0;entryDy=0;exitX=1;exitY=0.5;exitDx=0;exitDy=0;strokeColor=#7EA6E0;strokeWidth=4;" parent="1" source="m2VDShEJtUjdngg2nPHX-3" target="m2VDShEJtUjdngg2nPHX-2" edge="1">
          <mxGeometry relative="1" as="geometry">
            <Array as="points">
              <mxPoint x="-590" y="1771" />
              <mxPoint x="-590" y="1724" />
            </Array>
          </mxGeometry>
        </mxCell>
        <mxCell id="m2VDShEJtUjdngg2nPHX-14" value="" style="edgeStyle=orthogonalEdgeStyle;rounded=0;orthogonalLoop=1;jettySize=auto;html=1;strokeColor=#7EA6E0;strokeWidth=4;" parent="1" source="m2VDShEJtUjdngg2nPHX-9" target="m2VDShEJtUjdngg2nPHX-13" edge="1">
          <mxGeometry relative="1" as="geometry">
            <Array as="points">
              <mxPoint x="-570" y="1914" />
              <mxPoint x="-570" y="1936" />
            </Array>
          </mxGeometry>
        </mxCell>
        <mxCell id="m2VDShEJtUjdngg2nPHX-10" value="" style="edgeStyle=orthogonalEdgeStyle;rounded=0;orthogonalLoop=1;jettySize=auto;html=1;entryX=0;entryY=0.5;entryDx=0;entryDy=0;exitX=1;exitY=0.5;exitDx=0;exitDy=0;strokeColor=#7EA6E0;strokeWidth=4;" parent="1" source="m2VDShEJtUjdngg2nPHX-11" target="m2VDShEJtUjdngg2nPHX-13" edge="1">
          <mxGeometry relative="1" as="geometry">
            <Array as="points">
              <mxPoint x="-570" y="1961" />
              <mxPoint x="-570" y="1936" />
            </Array>
          </mxGeometry>
        </mxCell>
        <mxCell id="m2VDShEJtUjdngg2nPHX-20" value="" style="edgeStyle=orthogonalEdgeStyle;rounded=0;orthogonalLoop=1;jettySize=auto;html=1;entryX=0;entryY=0.5;entryDx=0;entryDy=0;dashed=1;dashPattern=1 1;strokeColor=#7EA6E0;strokeWidth=4;" parent="1" source="m2VDShEJtUjdngg2nPHX-17" target="m2VDShEJtUjdngg2nPHX-2" edge="1">
          <mxGeometry relative="1" as="geometry" />
        </mxCell>
        <mxCell id="m2VDShEJtUjdngg2nPHX-24" value="" style="edgeStyle=orthogonalEdgeStyle;rounded=0;orthogonalLoop=1;jettySize=auto;html=1;entryX=0;entryY=0.5;entryDx=0;entryDy=0;dashed=1;dashPattern=1 1;exitX=1;exitY=0.5;exitDx=0;exitDy=0;strokeColor=#7EA6E0;strokeWidth=4;" parent="1" source="m2VDShEJtUjdngg2nPHX-23" target="m2VDShEJtUjdngg2nPHX-9" edge="1">
          <mxGeometry relative="1" as="geometry">
            <mxPoint x="-848" y="1733" as="sourcePoint" />
            <mxPoint x="-740" y="1734" as="targetPoint" />
          </mxGeometry>
        </mxCell>
        <mxCell id="m2VDShEJtUjdngg2nPHX-31" value="" style="edgeStyle=orthogonalEdgeStyle;rounded=0;orthogonalLoop=1;jettySize=auto;html=1;exitX=1;exitY=0.5;exitDx=0;exitDy=0;entryX=1;entryY=0.5;entryDx=0;entryDy=0;strokeColor=#7EA6E0;strokeWidth=4;" parent="1" source="m2VDShEJtUjdngg2nPHX-32" target="m2VDShEJtUjdngg2nPHX-40" edge="1">
          <mxGeometry relative="1" as="geometry">
            <Array as="points">
              <mxPoint x="-590" y="2151" />
              <mxPoint x="-590" y="2296" />
              <mxPoint x="-703" y="2296" />
            </Array>
            <mxPoint x="-640" y="2300" as="targetPoint" />
          </mxGeometry>
        </mxCell>
        <mxCell id="m2VDShEJtUjdngg2nPHX-37" value="" style="edgeStyle=orthogonalEdgeStyle;rounded=0;orthogonalLoop=1;jettySize=auto;html=1;entryX=0;entryY=0.5;entryDx=0;entryDy=0;exitX=0.5;exitY=1;exitDx=0;exitDy=0;strokeColor=#7EA6E0;strokeWidth=4;" parent="1" source="m2VDShEJtUjdngg2nPHX-36" target="m2VDShEJtUjdngg2nPHX-40" edge="1">
          <mxGeometry relative="1" as="geometry">
            <mxPoint x="-848" y="1923" as="sourcePoint" />
            <mxPoint x="-740" y="1924" as="targetPoint" />
          </mxGeometry>
        </mxCell>
        <mxCell id="m2VDShEJtUjdngg2nPHX-29" value="" style="edgeStyle=orthogonalEdgeStyle;rounded=0;orthogonalLoop=1;jettySize=auto;html=1;entryX=1;entryY=0.5;entryDx=0;entryDy=0;strokeColor=#7EA6E0;strokeWidth=4;" parent="1" source="m2VDShEJtUjdngg2nPHX-30" target="m2VDShEJtUjdngg2nPHX-40" edge="1">
          <mxGeometry relative="1" as="geometry">
            <Array as="points">
              <mxPoint x="-590" y="2103" />
              <mxPoint x="-590" y="2296" />
              <mxPoint x="-620" y="2296" />
            </Array>
            <mxPoint x="-620" y="2290" as="targetPoint" />
          </mxGeometry>
        </mxCell>
        <mxCell id="j1CahgC6rs7sGtYgRK9o-185" value="AuthN/AuthZ" style="rounded=0;whiteSpace=wrap;html=1;fillColor=#dae8fc;strokeColor=#6c8ebf;" parent="1" vertex="1">
          <mxGeometry x="283.48" y="1944" width="256.52" height="60" as="geometry" />
        </mxCell>
        <mxCell id="wfLd3W0hzVEbfNykl0-Y-2" value="Data Validation" style="rounded=0;whiteSpace=wrap;html=1;fillColor=#dae8fc;strokeColor=#6c8ebf;" parent="1" vertex="1">
          <mxGeometry x="548" y="1944" width="252" height="60" as="geometry" />
        </mxCell>
        <mxCell id="wfLd3W0hzVEbfNykl0-Y-3" value="Business Logic" style="rounded=0;whiteSpace=wrap;html=1;fillColor=#dae8fc;strokeColor=#6c8ebf;" parent="1" vertex="1">
          <mxGeometry x="503" y="2080" width="252" height="130" as="geometry" />
        </mxCell>
        <mxCell id="RzIrFYsIdh03MpDqn2hQ-1" value="Service A" style="rounded=0;whiteSpace=wrap;html=1;fillColor=#dae8fc;gradientColor=#7ea6e0;strokeColor=#6c8ebf;align=right;verticalAlign=top;" vertex="1" parent="1">
          <mxGeometry x="-896" y="54" width="120" height="54" as="geometry" />
        </mxCell>
        <mxCell id="RzIrFYsIdh03MpDqn2hQ-2" value="Service C" style="rounded=0;whiteSpace=wrap;html=1;fillColor=#dae8fc;gradientColor=#7ea6e0;strokeColor=#6c8ebf;align=right;verticalAlign=top;" vertex="1" parent="1">
          <mxGeometry x="-896" y="168" width="120" height="54" as="geometry" />
        </mxCell>
        <mxCell id="RzIrFYsIdh03MpDqn2hQ-3" value="Boundary 1" style="verticalLabelPosition=bottom;verticalAlign=top;html=1;shape=mxgraph.basic.frame;dx=10;whiteSpace=wrap;" vertex="1" parent="1">
          <mxGeometry x="-946" y="35" width="190" height="215" as="geometry" />
        </mxCell>
        <mxCell id="RzIrFYsIdh03MpDqn2hQ-5" value="Service B" style="rounded=0;whiteSpace=wrap;html=1;fillColor=#dae8fc;gradientColor=#7ea6e0;strokeColor=#6c8ebf;align=right;verticalAlign=top;" vertex="1" parent="1">
          <mxGeometry x="-896" y="111" width="120" height="54" as="geometry" />
        </mxCell>
        <mxCell id="RzIrFYsIdh03MpDqn2hQ-6" value="find" style="rounded=1;whiteSpace=wrap;html=1;fillColor=#00FFFF;strokeColor=#6c8ebf;" vertex="1" parent="1">
          <mxGeometry x="-896" y="57" width="50" height="16" as="geometry" />
        </mxCell>
        <mxCell id="RzIrFYsIdh03MpDqn2hQ-7" value="create" style="rounded=1;whiteSpace=wrap;html=1;fillColor=#00FFFF;strokeColor=#6c8ebf;" vertex="1" parent="1">
          <mxGeometry x="-896" y="73" width="50" height="16" as="geometry" />
        </mxCell>
        <mxCell id="RzIrFYsIdh03MpDqn2hQ-8" value="delete" style="rounded=1;whiteSpace=wrap;html=1;fillColor=#00FFFF;strokeColor=#6c8ebf;" vertex="1" parent="1">
          <mxGeometry x="-896" y="89" width="50" height="16" as="geometry" />
        </mxCell>
        <mxCell id="RzIrFYsIdh03MpDqn2hQ-12" value="find" style="rounded=1;whiteSpace=wrap;html=1;fillColor=#00FFFF;strokeColor=#6c8ebf;" vertex="1" parent="1">
          <mxGeometry x="-896" y="114" width="50" height="16" as="geometry" />
        </mxCell>
        <mxCell id="RzIrFYsIdh03MpDqn2hQ-32" value="" style="edgeStyle=orthogonalEdgeStyle;rounded=0;orthogonalLoop=1;jettySize=auto;html=1;entryX=0;entryY=0.5;entryDx=0;entryDy=0;exitX=0;exitY=0.5;exitDx=0;exitDy=0;strokeColor=#ff0000;" edge="1" parent="1" source="RzIrFYsIdh03MpDqn2hQ-13" target="RzIrFYsIdh03MpDqn2hQ-6">
          <mxGeometry relative="1" as="geometry" />
        </mxCell>
        <mxCell id="RzIrFYsIdh03MpDqn2hQ-13" value="create" style="rounded=1;whiteSpace=wrap;html=1;fillColor=#00FFFF;strokeColor=#6c8ebf;" vertex="1" parent="1">
          <mxGeometry x="-896" y="130" width="50" height="16" as="geometry" />
        </mxCell>
        <mxCell id="RzIrFYsIdh03MpDqn2hQ-14" value="delete" style="rounded=1;whiteSpace=wrap;html=1;fillColor=#00FFFF;strokeColor=#6c8ebf;" vertex="1" parent="1">
          <mxGeometry x="-896" y="146" width="50" height="16" as="geometry" />
        </mxCell>
        <mxCell id="RzIrFYsIdh03MpDqn2hQ-15" value="find" style="rounded=1;whiteSpace=wrap;html=1;fillColor=#00FFFF;strokeColor=#6c8ebf;" vertex="1" parent="1">
          <mxGeometry x="-896" y="172" width="50" height="16" as="geometry" />
        </mxCell>
        <mxCell id="RzIrFYsIdh03MpDqn2hQ-16" value="create" style="rounded=1;whiteSpace=wrap;html=1;fillColor=#00FFFF;strokeColor=#6c8ebf;" vertex="1" parent="1">
          <mxGeometry x="-896" y="188" width="50" height="16" as="geometry" />
        </mxCell>
        <mxCell id="RzIrFYsIdh03MpDqn2hQ-17" value="delete" style="rounded=1;whiteSpace=wrap;html=1;fillColor=#00FFFF;strokeColor=#6c8ebf;" vertex="1" parent="1">
          <mxGeometry x="-896" y="204" width="50" height="16" as="geometry" />
        </mxCell>
        <mxCell id="RzIrFYsIdh03MpDqn2hQ-18" value="Service D" style="rounded=0;whiteSpace=wrap;html=1;fillColor=#dae8fc;gradientColor=#7ea6e0;strokeColor=#6c8ebf;align=right;verticalAlign=top;" vertex="1" parent="1">
          <mxGeometry x="-690" y="54" width="120" height="54" as="geometry" />
        </mxCell>
        <mxCell id="RzIrFYsIdh03MpDqn2hQ-20" value="Boundary 2" style="verticalLabelPosition=bottom;verticalAlign=top;html=1;shape=mxgraph.basic.frame;dx=10;whiteSpace=wrap;" vertex="1" parent="1">
          <mxGeometry x="-740" y="35" width="190" height="215" as="geometry" />
        </mxCell>
        <mxCell id="RzIrFYsIdh03MpDqn2hQ-21" value="Service E" style="rounded=0;whiteSpace=wrap;html=1;fillColor=#dae8fc;gradientColor=#7ea6e0;strokeColor=#6c8ebf;align=right;verticalAlign=top;" vertex="1" parent="1">
          <mxGeometry x="-690" y="111" width="120" height="54" as="geometry" />
        </mxCell>
        <mxCell id="RzIrFYsIdh03MpDqn2hQ-22" value="find" style="rounded=1;whiteSpace=wrap;html=1;fillColor=#00FFFF;strokeColor=#82b366;" vertex="1" parent="1">
          <mxGeometry x="-690" y="57" width="50" height="16" as="geometry" />
        </mxCell>
        <mxCell id="RzIrFYsIdh03MpDqn2hQ-23" value="create" style="rounded=1;whiteSpace=wrap;html=1;fillColor=#00FFFF;strokeColor=#82b366;" vertex="1" parent="1">
          <mxGeometry x="-690" y="73" width="50" height="16" as="geometry" />
        </mxCell>
        <mxCell id="RzIrFYsIdh03MpDqn2hQ-24" value="delete" style="rounded=1;whiteSpace=wrap;html=1;fillColor=#00FFFF;strokeColor=#82b366;" vertex="1" parent="1">
          <mxGeometry x="-690" y="89" width="50" height="16" as="geometry" />
        </mxCell>
        <mxCell id="RzIrFYsIdh03MpDqn2hQ-25" value="find" style="rounded=1;whiteSpace=wrap;html=1;fillColor=#00FFFF;strokeColor=#82b366;" vertex="1" parent="1">
          <mxGeometry x="-690" y="114" width="50" height="16" as="geometry" />
        </mxCell>
        <mxCell id="RzIrFYsIdh03MpDqn2hQ-26" value="create" style="rounded=1;whiteSpace=wrap;html=1;fillColor=#00FFFF;strokeColor=#82b366;" vertex="1" parent="1">
          <mxGeometry x="-690" y="130" width="50" height="16" as="geometry" />
        </mxCell>
        <mxCell id="RzIrFYsIdh03MpDqn2hQ-27" value="delete" style="rounded=1;whiteSpace=wrap;html=1;fillColor=#00FFFF;strokeColor=#82b366;" vertex="1" parent="1">
          <mxGeometry x="-690" y="146" width="50" height="16" as="geometry" />
        </mxCell>
        <mxCell id="RzIrFYsIdh03MpDqn2hQ-33" value="" style="edgeStyle=orthogonalEdgeStyle;rounded=0;orthogonalLoop=1;jettySize=auto;html=1;entryX=0;entryY=0.5;entryDx=0;entryDy=0;exitX=0;exitY=0.5;exitDx=0;exitDy=0;strokeColor=#ff0000;" edge="1" parent="1" source="RzIrFYsIdh03MpDqn2hQ-13" target="RzIrFYsIdh03MpDqn2hQ-15">
          <mxGeometry relative="1" as="geometry">
            <mxPoint x="-886" y="148" as="sourcePoint" />
            <mxPoint x="-886" y="75" as="targetPoint" />
          </mxGeometry>
        </mxCell>
        <mxCell id="RzIrFYsIdh03MpDqn2hQ-34" value="" style="edgeStyle=orthogonalEdgeStyle;rounded=0;orthogonalLoop=1;jettySize=auto;html=1;entryX=0;entryY=0.5;entryDx=0;entryDy=0;exitX=1;exitY=0.5;exitDx=0;exitDy=0;strokeColor=#0000FF;" edge="1" parent="1" source="RzIrFYsIdh03MpDqn2hQ-17" target="RzIrFYsIdh03MpDqn2hQ-27">
          <mxGeometry relative="1" as="geometry">
            <mxPoint x="-913" y="148" as="sourcePoint" />
            <mxPoint x="-913" y="190" as="targetPoint" />
            <Array as="points">
              <mxPoint x="-750" y="212" />
              <mxPoint x="-750" y="154" />
            </Array>
          </mxGeometry>
        </mxCell>
        <mxCell id="RzIrFYsIdh03MpDqn2hQ-35" value="" style="edgeStyle=orthogonalEdgeStyle;rounded=0;orthogonalLoop=1;jettySize=auto;html=1;entryX=0;entryY=0.5;entryDx=0;entryDy=0;exitX=0;exitY=0.5;exitDx=0;exitDy=0;" edge="1" parent="1" source="RzIrFYsIdh03MpDqn2hQ-26" target="RzIrFYsIdh03MpDqn2hQ-22">
          <mxGeometry relative="1" as="geometry">
            <mxPoint x="-890" y="222" as="sourcePoint" />
            <mxPoint x="-680" y="164" as="targetPoint" />
            <Array as="points">
              <mxPoint x="-710" y="138" />
              <mxPoint x="-710" y="65" />
            </Array>
          </mxGeometry>
        </mxCell>
        <mxCell id="RzIrFYsIdh03MpDqn2hQ-36" value="Service A" style="rounded=0;whiteSpace=wrap;html=1;fillColor=#dae8fc;gradientColor=#7ea6e0;strokeColor=#6c8ebf;align=right;verticalAlign=top;" vertex="1" parent="1">
          <mxGeometry x="-890" y="316.5" width="120" height="54" as="geometry" />
        </mxCell>
        <mxCell id="RzIrFYsIdh03MpDqn2hQ-37" value="Service C" style="rounded=0;whiteSpace=wrap;html=1;fillColor=#dae8fc;gradientColor=#7ea6e0;strokeColor=#6c8ebf;align=right;verticalAlign=top;" vertex="1" parent="1">
          <mxGeometry x="-890" y="430.5" width="120" height="54" as="geometry" />
        </mxCell>
        <mxCell id="RzIrFYsIdh03MpDqn2hQ-38" value="Boundary 1" style="verticalLabelPosition=bottom;verticalAlign=top;html=1;shape=mxgraph.basic.frame;dx=10;whiteSpace=wrap;" vertex="1" parent="1">
          <mxGeometry x="-1120" y="293" width="370" height="215" as="geometry" />
        </mxCell>
        <mxCell id="RzIrFYsIdh03MpDqn2hQ-39" value="Service B" style="rounded=0;whiteSpace=wrap;html=1;fillColor=#dae8fc;gradientColor=#7ea6e0;strokeColor=#6c8ebf;align=right;verticalAlign=top;" vertex="1" parent="1">
          <mxGeometry x="-890" y="373.5" width="120" height="54" as="geometry" />
        </mxCell>
        <mxCell id="RzIrFYsIdh03MpDqn2hQ-40" value="find" style="rounded=1;whiteSpace=wrap;html=1;fillColor=#00FFFF;strokeColor=#82b366;" vertex="1" parent="1">
          <mxGeometry x="-890" y="319.5" width="50" height="16" as="geometry" />
        </mxCell>
        <mxCell id="RzIrFYsIdh03MpDqn2hQ-41" value="create" style="rounded=1;whiteSpace=wrap;html=1;fillColor=#00FFFF;strokeColor=#82b366;" vertex="1" parent="1">
          <mxGeometry x="-890" y="335.5" width="50" height="16" as="geometry" />
        </mxCell>
        <mxCell id="RzIrFYsIdh03MpDqn2hQ-42" value="delete" style="rounded=1;whiteSpace=wrap;html=1;fillColor=#00FFFF;strokeColor=#82b366;" vertex="1" parent="1">
          <mxGeometry x="-890" y="351.5" width="50" height="16" as="geometry" />
        </mxCell>
        <mxCell id="RzIrFYsIdh03MpDqn2hQ-43" value="find" style="rounded=1;whiteSpace=wrap;html=1;fillColor=#00FFFF;strokeColor=#82b366;" vertex="1" parent="1">
          <mxGeometry x="-890" y="376.5" width="50" height="16" as="geometry" />
        </mxCell>
        <mxCell id="RzIrFYsIdh03MpDqn2hQ-44" value="" style="edgeStyle=orthogonalEdgeStyle;rounded=0;orthogonalLoop=1;jettySize=auto;html=1;entryX=1;entryY=0.5;entryDx=0;entryDy=0;exitX=0;exitY=0.5;exitDx=0;exitDy=0;strokeColor=#FF0000;" edge="1" parent="1" source="RzIrFYsIdh03MpDqn2hQ-45" target="RzIrFYsIdh03MpDqn2hQ-52">
          <mxGeometry relative="1" as="geometry">
            <Array as="points">
              <mxPoint x="-980" y="401" />
              <mxPoint x="-980" y="327" />
            </Array>
          </mxGeometry>
        </mxCell>
        <mxCell id="RzIrFYsIdh03MpDqn2hQ-45" value="create" style="rounded=1;whiteSpace=wrap;html=1;fillColor=#00FFFF;strokeColor=#82b366;" vertex="1" parent="1">
          <mxGeometry x="-890" y="392.5" width="50" height="16" as="geometry" />
        </mxCell>
        <mxCell id="RzIrFYsIdh03MpDqn2hQ-46" value="delete" style="rounded=1;whiteSpace=wrap;html=1;fillColor=#00FFFF;strokeColor=#82b366;" vertex="1" parent="1">
          <mxGeometry x="-890" y="408.5" width="50" height="16" as="geometry" />
        </mxCell>
        <mxCell id="RzIrFYsIdh03MpDqn2hQ-47" value="find" style="rounded=1;whiteSpace=wrap;html=1;fillColor=#00FFFF;strokeColor=#82b366;" vertex="1" parent="1">
          <mxGeometry x="-890" y="434.5" width="50" height="16" as="geometry" />
        </mxCell>
        <mxCell id="RzIrFYsIdh03MpDqn2hQ-48" value="create" style="rounded=1;whiteSpace=wrap;html=1;fillColor=#00FFFF;strokeColor=#82b366;" vertex="1" parent="1">
          <mxGeometry x="-890" y="450.5" width="50" height="16" as="geometry" />
        </mxCell>
        <mxCell id="RzIrFYsIdh03MpDqn2hQ-49" value="delete" style="rounded=1;whiteSpace=wrap;html=1;fillColor=#00FFFF;strokeColor=#82b366;" vertex="1" parent="1">
          <mxGeometry x="-890" y="466.5" width="50" height="16" as="geometry" />
        </mxCell>
        <mxCell id="RzIrFYsIdh03MpDqn2hQ-50" value="" style="edgeStyle=orthogonalEdgeStyle;rounded=0;orthogonalLoop=1;jettySize=auto;html=1;entryX=1;entryY=0.5;entryDx=0;entryDy=0;exitX=0;exitY=0.5;exitDx=0;exitDy=0;strokeColor=#FF0000;" edge="1" parent="1" source="RzIrFYsIdh03MpDqn2hQ-45" target="RzIrFYsIdh03MpDqn2hQ-60">
          <mxGeometry relative="1" as="geometry">
            <mxPoint x="-880" y="410.5" as="sourcePoint" />
            <mxPoint x="-880" y="337.5" as="targetPoint" />
            <Array as="points">
              <mxPoint x="-980" y="401" />
              <mxPoint x="-980" y="443" />
            </Array>
          </mxGeometry>
        </mxCell>
        <mxCell id="RzIrFYsIdh03MpDqn2hQ-51" value="Repo A" style="rounded=0;whiteSpace=wrap;html=1;fillColor=#fff2cc;strokeColor=#d6b656;align=left;verticalAlign=top;" vertex="1" parent="1">
          <mxGeometry x="-1100" y="316.5" width="100" height="54" as="geometry" />
        </mxCell>
        <mxCell id="RzIrFYsIdh03MpDqn2hQ-52" value="find" style="rounded=1;whiteSpace=wrap;html=1;fillColor=#FFFF33;strokeColor=#82b366;" vertex="1" parent="1">
          <mxGeometry x="-1050" y="319.5" width="50" height="16" as="geometry" />
        </mxCell>
        <mxCell id="RzIrFYsIdh03MpDqn2hQ-53" value="create" style="rounded=1;whiteSpace=wrap;html=1;fillColor=#FFFF33;strokeColor=#82b366;" vertex="1" parent="1">
          <mxGeometry x="-1050" y="335.5" width="50" height="16" as="geometry" />
        </mxCell>
        <mxCell id="RzIrFYsIdh03MpDqn2hQ-54" value="delete" style="rounded=1;whiteSpace=wrap;html=1;fillColor=#FFFF33;strokeColor=#82b366;" vertex="1" parent="1">
          <mxGeometry x="-1050" y="351.5" width="50" height="16" as="geometry" />
        </mxCell>
        <mxCell id="RzIrFYsIdh03MpDqn2hQ-55" value="Repo B" style="rounded=0;whiteSpace=wrap;html=1;fillColor=#fff2cc;strokeColor=#d6b656;align=left;verticalAlign=top;" vertex="1" parent="1">
          <mxGeometry x="-1100" y="374" width="100" height="54" as="geometry" />
        </mxCell>
        <mxCell id="RzIrFYsIdh03MpDqn2hQ-56" value="find" style="rounded=1;whiteSpace=wrap;html=1;fillColor=#FFFF33;strokeColor=#82b366;" vertex="1" parent="1">
          <mxGeometry x="-1050" y="377" width="50" height="16" as="geometry" />
        </mxCell>
        <mxCell id="RzIrFYsIdh03MpDqn2hQ-57" value="create" style="rounded=1;whiteSpace=wrap;html=1;fillColor=#FFFF33;strokeColor=#82b366;" vertex="1" parent="1">
          <mxGeometry x="-1050" y="393" width="50" height="16" as="geometry" />
        </mxCell>
        <mxCell id="RzIrFYsIdh03MpDqn2hQ-58" value="delete" style="rounded=1;whiteSpace=wrap;html=1;fillColor=#FFFF33;strokeColor=#82b366;" vertex="1" parent="1">
          <mxGeometry x="-1050" y="409" width="50" height="16" as="geometry" />
        </mxCell>
        <mxCell id="RzIrFYsIdh03MpDqn2hQ-59" value="Repo C" style="rounded=0;whiteSpace=wrap;html=1;fillColor=#fff2cc;strokeColor=#d6b656;align=left;verticalAlign=top;" vertex="1" parent="1">
          <mxGeometry x="-1100" y="431.5" width="100" height="54" as="geometry" />
        </mxCell>
        <mxCell id="RzIrFYsIdh03MpDqn2hQ-60" value="find" style="rounded=1;whiteSpace=wrap;html=1;fillColor=#FFFF33;strokeColor=#82b366;" vertex="1" parent="1">
          <mxGeometry x="-1050" y="434.5" width="50" height="16" as="geometry" />
        </mxCell>
        <mxCell id="RzIrFYsIdh03MpDqn2hQ-61" value="create" style="rounded=1;whiteSpace=wrap;html=1;fillColor=#FFFF33;strokeColor=#82b366;" vertex="1" parent="1">
          <mxGeometry x="-1050" y="450.5" width="50" height="16" as="geometry" />
        </mxCell>
        <mxCell id="RzIrFYsIdh03MpDqn2hQ-62" value="delete" style="rounded=1;whiteSpace=wrap;html=1;fillColor=#FFFF33;strokeColor=#82b366;" vertex="1" parent="1">
          <mxGeometry x="-1050" y="466.5" width="50" height="16" as="geometry" />
        </mxCell>
        <mxCell id="RzIrFYsIdh03MpDqn2hQ-63" value="" style="edgeStyle=orthogonalEdgeStyle;rounded=0;orthogonalLoop=1;jettySize=auto;html=1;entryX=0;entryY=0.5;entryDx=0;entryDy=0;exitX=0;exitY=0.25;exitDx=0;exitDy=0;strokeColor=#0000FF;" edge="1" parent="1" source="RzIrFYsIdh03MpDqn2hQ-14" target="RzIrFYsIdh03MpDqn2hQ-8">
          <mxGeometry relative="1" as="geometry">
            <mxPoint x="-886" y="148" as="sourcePoint" />
            <mxPoint x="-886" y="75" as="targetPoint" />
            <Array as="points">
              <mxPoint x="-906" y="150" />
              <mxPoint x="-906" y="97" />
            </Array>
          </mxGeometry>
        </mxCell>
        <mxCell id="RzIrFYsIdh03MpDqn2hQ-64" value="" style="edgeStyle=orthogonalEdgeStyle;rounded=0;orthogonalLoop=1;jettySize=auto;html=1;entryX=1;entryY=0.5;entryDx=0;entryDy=0;exitX=0;exitY=0.5;exitDx=0;exitDy=0;dashed=1;opacity=20;" edge="1" parent="1" source="RzIrFYsIdh03MpDqn2hQ-45" target="RzIrFYsIdh03MpDqn2hQ-57">
          <mxGeometry relative="1" as="geometry">
            <mxPoint x="-880" y="411" as="sourcePoint" />
            <mxPoint x="-940" y="452" as="targetPoint" />
          </mxGeometry>
        </mxCell>
        <mxCell id="RzIrFYsIdh03MpDqn2hQ-65" value="" style="edgeStyle=orthogonalEdgeStyle;rounded=0;orthogonalLoop=1;jettySize=auto;html=1;entryX=1;entryY=0.5;entryDx=0;entryDy=0;exitX=0;exitY=0.5;exitDx=0;exitDy=0;dashed=1;opacity=20;" edge="1" parent="1" source="RzIrFYsIdh03MpDqn2hQ-40" target="RzIrFYsIdh03MpDqn2hQ-52">
          <mxGeometry relative="1" as="geometry">
            <mxPoint x="-890" y="327.33" as="sourcePoint" />
            <mxPoint x="-950" y="327.33" as="targetPoint" />
          </mxGeometry>
        </mxCell>
        <mxCell id="RzIrFYsIdh03MpDqn2hQ-66" value="" style="edgeStyle=orthogonalEdgeStyle;rounded=0;orthogonalLoop=1;jettySize=auto;html=1;entryX=1;entryY=0.5;entryDx=0;entryDy=0;exitX=0;exitY=0.5;exitDx=0;exitDy=0;dashed=1;opacity=20;" edge="1" parent="1" source="RzIrFYsIdh03MpDqn2hQ-41" target="RzIrFYsIdh03MpDqn2hQ-53">
          <mxGeometry relative="1" as="geometry">
            <mxPoint x="-880" y="338" as="sourcePoint" />
            <mxPoint x="-940" y="338" as="targetPoint" />
          </mxGeometry>
        </mxCell>
        <mxCell id="RzIrFYsIdh03MpDqn2hQ-67" value="" style="edgeStyle=orthogonalEdgeStyle;rounded=0;orthogonalLoop=1;jettySize=auto;html=1;entryX=1;entryY=0.5;entryDx=0;entryDy=0;exitX=0;exitY=0.5;exitDx=0;exitDy=0;dashed=1;opacity=20;" edge="1" parent="1" source="RzIrFYsIdh03MpDqn2hQ-42" target="RzIrFYsIdh03MpDqn2hQ-54">
          <mxGeometry relative="1" as="geometry">
            <mxPoint x="-880" y="354" as="sourcePoint" />
            <mxPoint x="-940" y="354" as="targetPoint" />
          </mxGeometry>
        </mxCell>
        <mxCell id="RzIrFYsIdh03MpDqn2hQ-68" value="" style="edgeStyle=orthogonalEdgeStyle;rounded=0;orthogonalLoop=1;jettySize=auto;html=1;entryX=1;entryY=0.5;entryDx=0;entryDy=0;exitX=0;exitY=0.5;exitDx=0;exitDy=0;dashed=1;opacity=20;" edge="1" parent="1" source="RzIrFYsIdh03MpDqn2hQ-43" target="RzIrFYsIdh03MpDqn2hQ-56">
          <mxGeometry relative="1" as="geometry">
            <mxPoint x="-880" y="370" as="sourcePoint" />
            <mxPoint x="-940" y="370" as="targetPoint" />
          </mxGeometry>
        </mxCell>
        <mxCell id="RzIrFYsIdh03MpDqn2hQ-69" value="" style="edgeStyle=orthogonalEdgeStyle;rounded=0;orthogonalLoop=1;jettySize=auto;html=1;entryX=1;entryY=0.5;entryDx=0;entryDy=0;exitX=0;exitY=0.5;exitDx=0;exitDy=0;dashed=1;opacity=20;" edge="1" parent="1" source="RzIrFYsIdh03MpDqn2hQ-46" target="RzIrFYsIdh03MpDqn2hQ-58">
          <mxGeometry relative="1" as="geometry">
            <mxPoint x="-880" y="394" as="sourcePoint" />
            <mxPoint x="-940" y="395" as="targetPoint" />
          </mxGeometry>
        </mxCell>
        <mxCell id="RzIrFYsIdh03MpDqn2hQ-70" value="" style="edgeStyle=orthogonalEdgeStyle;rounded=0;orthogonalLoop=1;jettySize=auto;html=1;entryX=1;entryY=0.5;entryDx=0;entryDy=0;exitX=0;exitY=0.25;exitDx=0;exitDy=0;dashed=1;opacity=20;" edge="1" parent="1" source="RzIrFYsIdh03MpDqn2hQ-37" target="RzIrFYsIdh03MpDqn2hQ-60">
          <mxGeometry relative="1" as="geometry">
            <mxPoint x="-880" y="427" as="sourcePoint" />
            <mxPoint x="-940" y="427" as="targetPoint" />
          </mxGeometry>
        </mxCell>
        <mxCell id="RzIrFYsIdh03MpDqn2hQ-71" value="" style="edgeStyle=orthogonalEdgeStyle;rounded=0;orthogonalLoop=1;jettySize=auto;html=1;entryX=1;entryY=0.5;entryDx=0;entryDy=0;exitX=0;exitY=0.5;exitDx=0;exitDy=0;dashed=1;opacity=20;" edge="1" parent="1" source="RzIrFYsIdh03MpDqn2hQ-48" target="RzIrFYsIdh03MpDqn2hQ-61">
          <mxGeometry relative="1" as="geometry">
            <mxPoint x="-880" y="454" as="sourcePoint" />
            <mxPoint x="-940" y="453" as="targetPoint" />
          </mxGeometry>
        </mxCell>
        <mxCell id="RzIrFYsIdh03MpDqn2hQ-72" value="" style="edgeStyle=orthogonalEdgeStyle;rounded=0;orthogonalLoop=1;jettySize=auto;html=1;entryX=1;entryY=0.5;entryDx=0;entryDy=0;exitX=0;exitY=0.5;exitDx=0;exitDy=0;dashed=1;opacity=20;" edge="1" parent="1" source="RzIrFYsIdh03MpDqn2hQ-49" target="RzIrFYsIdh03MpDqn2hQ-62">
          <mxGeometry relative="1" as="geometry">
            <mxPoint x="-880" y="468" as="sourcePoint" />
            <mxPoint x="-940" y="468" as="targetPoint" />
          </mxGeometry>
        </mxCell>
        <mxCell id="RzIrFYsIdh03MpDqn2hQ-73" value="" style="edgeStyle=orthogonalEdgeStyle;rounded=0;orthogonalLoop=1;jettySize=auto;html=1;entryX=0;entryY=0.875;entryDx=0;entryDy=0;exitX=0;exitY=0.5;exitDx=0;exitDy=0;entryPerimeter=0;strokeColor=#0000FF;" edge="1" parent="1" source="RzIrFYsIdh03MpDqn2hQ-17" target="RzIrFYsIdh03MpDqn2hQ-14">
          <mxGeometry relative="1" as="geometry">
            <mxPoint x="-955" y="164" as="sourcePoint" />
            <mxPoint x="-955" y="107" as="targetPoint" />
            <Array as="points">
              <mxPoint x="-896" y="210" />
              <mxPoint x="-906" y="210" />
              <mxPoint x="-906" y="160" />
            </Array>
          </mxGeometry>
        </mxCell>
        <mxCell id="RzIrFYsIdh03MpDqn2hQ-74" value="Deleter" style="rounded=0;whiteSpace=wrap;html=1;fillColor=#60a917;strokeColor=#2D7600;align=center;fontColor=#ffffff;" vertex="1" parent="1">
          <mxGeometry x="-964" y="422" width="50" height="15" as="geometry" />
        </mxCell>
        <mxCell id="RzIrFYsIdh03MpDqn2hQ-75" value="" style="edgeStyle=orthogonalEdgeStyle;rounded=0;orthogonalLoop=1;jettySize=auto;html=1;entryX=1;entryY=0.5;entryDx=0;entryDy=0;exitX=0;exitY=0.5;exitDx=0;exitDy=0;strokeColor=#0000FF;" edge="1" parent="1" source="RzIrFYsIdh03MpDqn2hQ-49" target="RzIrFYsIdh03MpDqn2hQ-74">
          <mxGeometry relative="1" as="geometry">
            <mxPoint x="-860" y="574.02" as="sourcePoint" />
            <mxPoint x="-860" y="522.02" as="targetPoint" />
            <Array as="points">
              <mxPoint x="-900" y="475" />
              <mxPoint x="-900" y="430" />
            </Array>
          </mxGeometry>
        </mxCell>
        <mxCell id="RzIrFYsIdh03MpDqn2hQ-76" value="" style="edgeStyle=orthogonalEdgeStyle;rounded=0;orthogonalLoop=1;jettySize=auto;html=1;entryX=1;entryY=0.5;entryDx=0;entryDy=0;exitX=0;exitY=0.5;exitDx=0;exitDy=0;strokeColor=#0000FF;" edge="1" parent="1" source="RzIrFYsIdh03MpDqn2hQ-74" target="RzIrFYsIdh03MpDqn2hQ-62">
          <mxGeometry relative="1" as="geometry">
            <mxPoint x="-880" y="485" as="sourcePoint" />
            <mxPoint x="-900" y="440" as="targetPoint" />
            <Array as="points">
              <mxPoint x="-970" y="430" />
              <mxPoint x="-970" y="474" />
            </Array>
          </mxGeometry>
        </mxCell>
        <mxCell id="RzIrFYsIdh03MpDqn2hQ-77" value="" style="edgeStyle=orthogonalEdgeStyle;rounded=0;orthogonalLoop=1;jettySize=auto;html=1;entryX=1;entryY=0.5;entryDx=0;entryDy=0;exitX=0;exitY=0.5;exitDx=0;exitDy=0;strokeColor=#0000FF;" edge="1" parent="1" source="RzIrFYsIdh03MpDqn2hQ-74" target="RzIrFYsIdh03MpDqn2hQ-58">
          <mxGeometry relative="1" as="geometry">
            <mxPoint x="-950" y="440" as="sourcePoint" />
            <mxPoint x="-990" y="485" as="targetPoint" />
            <Array as="points">
              <mxPoint x="-970" y="429" />
              <mxPoint x="-970" y="417" />
            </Array>
          </mxGeometry>
        </mxCell>
        <mxCell id="RzIrFYsIdh03MpDqn2hQ-78" value="" style="edgeStyle=orthogonalEdgeStyle;rounded=0;orthogonalLoop=1;jettySize=auto;html=1;entryX=1;entryY=0.5;entryDx=0;entryDy=0;strokeColor=#0000FF;exitX=0;exitY=0.5;exitDx=0;exitDy=0;" edge="1" parent="1" source="RzIrFYsIdh03MpDqn2hQ-74" target="RzIrFYsIdh03MpDqn2hQ-54">
          <mxGeometry relative="1" as="geometry">
            <mxPoint x="-960" y="432" as="sourcePoint" />
            <mxPoint x="-990" y="427" as="targetPoint" />
            <Array as="points">
              <mxPoint x="-970" y="429" />
              <mxPoint x="-970" y="359" />
            </Array>
          </mxGeometry>
        </mxCell>
        <mxCell id="RzIrFYsIdh03MpDqn2hQ-101" value="Service D" style="rounded=0;whiteSpace=wrap;html=1;fillColor=#dae8fc;gradientColor=#7ea6e0;strokeColor=#6c8ebf;align=right;verticalAlign=top;" vertex="1" parent="1">
          <mxGeometry x="-712" y="312" width="120" height="54" as="geometry" />
        </mxCell>
        <mxCell id="RzIrFYsIdh03MpDqn2hQ-102" value="Boundary 2" style="verticalLabelPosition=bottom;verticalAlign=top;html=1;shape=mxgraph.basic.frame;dx=10;whiteSpace=wrap;" vertex="1" parent="1">
          <mxGeometry x="-740" y="293" width="290" height="215" as="geometry" />
        </mxCell>
        <mxCell id="RzIrFYsIdh03MpDqn2hQ-103" value="Service E" style="rounded=0;whiteSpace=wrap;html=1;fillColor=#dae8fc;gradientColor=#7ea6e0;strokeColor=#6c8ebf;align=right;verticalAlign=top;" vertex="1" parent="1">
          <mxGeometry x="-712" y="369" width="120" height="54" as="geometry" />
        </mxCell>
        <mxCell id="RzIrFYsIdh03MpDqn2hQ-104" value="find" style="rounded=1;whiteSpace=wrap;html=1;fillColor=#00FFFF;strokeColor=#82b366;" vertex="1" parent="1">
          <mxGeometry x="-712" y="315" width="50" height="16" as="geometry" />
        </mxCell>
        <mxCell id="RzIrFYsIdh03MpDqn2hQ-105" value="create" style="rounded=1;whiteSpace=wrap;html=1;fillColor=#00FFFF;strokeColor=#82b366;" vertex="1" parent="1">
          <mxGeometry x="-712" y="331" width="50" height="16" as="geometry" />
        </mxCell>
        <mxCell id="RzIrFYsIdh03MpDqn2hQ-106" value="delete" style="rounded=1;whiteSpace=wrap;html=1;fillColor=#00FFFF;strokeColor=#82b366;" vertex="1" parent="1">
          <mxGeometry x="-712" y="347" width="50" height="16" as="geometry" />
        </mxCell>
        <mxCell id="RzIrFYsIdh03MpDqn2hQ-107" value="find" style="rounded=1;whiteSpace=wrap;html=1;fillColor=#00FFFF;strokeColor=#82b366;" vertex="1" parent="1">
          <mxGeometry x="-712" y="372" width="50" height="16" as="geometry" />
        </mxCell>
        <mxCell id="RzIrFYsIdh03MpDqn2hQ-108" value="create" style="rounded=1;whiteSpace=wrap;html=1;fillColor=#00FFFF;strokeColor=#82b366;" vertex="1" parent="1">
          <mxGeometry x="-712" y="388" width="50" height="16" as="geometry" />
        </mxCell>
        <mxCell id="RzIrFYsIdh03MpDqn2hQ-109" value="delete" style="rounded=1;whiteSpace=wrap;html=1;fillColor=#00FFFF;strokeColor=#82b366;" vertex="1" parent="1">
          <mxGeometry x="-712" y="404" width="50" height="16" as="geometry" />
        </mxCell>
        <mxCell id="RzIrFYsIdh03MpDqn2hQ-110" value="" style="edgeStyle=orthogonalEdgeStyle;rounded=0;orthogonalLoop=1;jettySize=auto;html=1;entryX=0;entryY=0.5;entryDx=0;entryDy=0;" edge="1" parent="1" target="RzIrFYsIdh03MpDqn2hQ-117">
          <mxGeometry relative="1" as="geometry">
            <mxPoint x="-662" y="396" as="sourcePoint" />
            <mxPoint x="-702" y="422" as="targetPoint" />
            <Array as="points">
              <mxPoint x="-582" y="396" />
              <mxPoint x="-582" y="322" />
            </Array>
          </mxGeometry>
        </mxCell>
        <mxCell id="RzIrFYsIdh03MpDqn2hQ-116" value="Repo D" style="rounded=0;whiteSpace=wrap;html=1;fillColor=#fff2cc;strokeColor=#d6b656;align=right;" vertex="1" parent="1">
          <mxGeometry x="-571" y="311.5" width="100" height="54" as="geometry" />
        </mxCell>
        <mxCell id="RzIrFYsIdh03MpDqn2hQ-117" value="find" style="rounded=1;whiteSpace=wrap;html=1;fillColor=#FFFF33;strokeColor=#82b366;" vertex="1" parent="1">
          <mxGeometry x="-571" y="314.5" width="50" height="16" as="geometry" />
        </mxCell>
        <mxCell id="RzIrFYsIdh03MpDqn2hQ-118" value="create" style="rounded=1;whiteSpace=wrap;html=1;fillColor=#FFFF33;strokeColor=#82b366;" vertex="1" parent="1">
          <mxGeometry x="-571" y="330.5" width="50" height="16" as="geometry" />
        </mxCell>
        <mxCell id="RzIrFYsIdh03MpDqn2hQ-119" value="delete" style="rounded=1;whiteSpace=wrap;html=1;fillColor=#FFFF33;strokeColor=#82b366;" vertex="1" parent="1">
          <mxGeometry x="-571" y="346.5" width="50" height="16" as="geometry" />
        </mxCell>
        <mxCell id="RzIrFYsIdh03MpDqn2hQ-120" value="" style="edgeStyle=orthogonalEdgeStyle;rounded=0;orthogonalLoop=1;jettySize=auto;html=1;entryX=0;entryY=0.5;entryDx=0;entryDy=0;exitX=1;exitY=0.5;exitDx=0;exitDy=0;dashed=1;opacity=20;" edge="1" parent="1" source="RzIrFYsIdh03MpDqn2hQ-104" target="RzIrFYsIdh03MpDqn2hQ-117">
          <mxGeometry relative="1" as="geometry">
            <mxPoint x="-466" y="416.32" as="sourcePoint" />
            <mxPoint x="-576" y="416.32" as="targetPoint" />
          </mxGeometry>
        </mxCell>
        <mxCell id="RzIrFYsIdh03MpDqn2hQ-121" value="" style="edgeStyle=orthogonalEdgeStyle;rounded=0;orthogonalLoop=1;jettySize=auto;html=1;entryX=0;entryY=0.5;entryDx=0;entryDy=0;exitX=1;exitY=0.5;exitDx=0;exitDy=0;dashed=1;opacity=20;" edge="1" parent="1" source="RzIrFYsIdh03MpDqn2hQ-105" target="RzIrFYsIdh03MpDqn2hQ-118">
          <mxGeometry relative="1" as="geometry">
            <mxPoint x="-652" y="333" as="sourcePoint" />
            <mxPoint x="-561" y="333" as="targetPoint" />
          </mxGeometry>
        </mxCell>
        <mxCell id="RzIrFYsIdh03MpDqn2hQ-122" value="" style="edgeStyle=orthogonalEdgeStyle;rounded=0;orthogonalLoop=1;jettySize=auto;html=1;entryX=0;entryY=0.5;entryDx=0;entryDy=0;exitX=1;exitY=0.5;exitDx=0;exitDy=0;dashed=1;opacity=20;" edge="1" parent="1" source="RzIrFYsIdh03MpDqn2hQ-106" target="RzIrFYsIdh03MpDqn2hQ-119">
          <mxGeometry relative="1" as="geometry">
            <mxPoint x="-652" y="349" as="sourcePoint" />
            <mxPoint x="-561" y="349" as="targetPoint" />
          </mxGeometry>
        </mxCell>
        <mxCell id="RzIrFYsIdh03MpDqn2hQ-124" value="Repo D" style="rounded=0;whiteSpace=wrap;html=1;fillColor=#fff2cc;strokeColor=#d6b656;align=right;" vertex="1" parent="1">
          <mxGeometry x="-571" y="369" width="100" height="54" as="geometry" />
        </mxCell>
        <mxCell id="RzIrFYsIdh03MpDqn2hQ-125" value="find" style="rounded=1;whiteSpace=wrap;html=1;fillColor=#FFFF33;strokeColor=#82b366;" vertex="1" parent="1">
          <mxGeometry x="-571" y="372" width="50" height="16" as="geometry" />
        </mxCell>
        <mxCell id="RzIrFYsIdh03MpDqn2hQ-126" value="create" style="rounded=1;whiteSpace=wrap;html=1;fillColor=#FFFF33;strokeColor=#82b366;" vertex="1" parent="1">
          <mxGeometry x="-571" y="388" width="50" height="16" as="geometry" />
        </mxCell>
        <mxCell id="RzIrFYsIdh03MpDqn2hQ-127" value="delete" style="rounded=1;whiteSpace=wrap;html=1;fillColor=#FFFF33;strokeColor=#82b366;" vertex="1" parent="1">
          <mxGeometry x="-571" y="404" width="50" height="16" as="geometry" />
        </mxCell>
        <mxCell id="RzIrFYsIdh03MpDqn2hQ-128" value="" style="edgeStyle=orthogonalEdgeStyle;rounded=0;orthogonalLoop=1;jettySize=auto;html=1;entryX=0;entryY=0.5;entryDx=0;entryDy=0;exitX=1;exitY=0.5;exitDx=0;exitDy=0;dashed=1;opacity=20;" edge="1" parent="1" source="RzIrFYsIdh03MpDqn2hQ-107" target="RzIrFYsIdh03MpDqn2hQ-125">
          <mxGeometry relative="1" as="geometry">
            <mxPoint x="-652" y="365" as="sourcePoint" />
            <mxPoint x="-561" y="365" as="targetPoint" />
          </mxGeometry>
        </mxCell>
        <mxCell id="RzIrFYsIdh03MpDqn2hQ-129" value="" style="edgeStyle=orthogonalEdgeStyle;rounded=0;orthogonalLoop=1;jettySize=auto;html=1;entryX=0;entryY=0.5;entryDx=0;entryDy=0;exitX=1;exitY=0.5;exitDx=0;exitDy=0;dashed=1;opacity=20;" edge="1" parent="1" source="RzIrFYsIdh03MpDqn2hQ-108" target="RzIrFYsIdh03MpDqn2hQ-126">
          <mxGeometry relative="1" as="geometry">
            <mxPoint x="-652" y="390" as="sourcePoint" />
            <mxPoint x="-561" y="390" as="targetPoint" />
          </mxGeometry>
        </mxCell>
        <mxCell id="RzIrFYsIdh03MpDqn2hQ-130" value="" style="edgeStyle=orthogonalEdgeStyle;rounded=0;orthogonalLoop=1;jettySize=auto;html=1;entryX=0;entryY=0.5;entryDx=0;entryDy=0;dashed=1;opacity=20;exitX=1;exitY=0.5;exitDx=0;exitDy=0;" edge="1" parent="1" source="RzIrFYsIdh03MpDqn2hQ-109" target="RzIrFYsIdh03MpDqn2hQ-127">
          <mxGeometry relative="1" as="geometry">
            <mxPoint x="-652" y="406" as="sourcePoint" />
            <mxPoint x="-561" y="406" as="targetPoint" />
          </mxGeometry>
        </mxCell>
        <mxCell id="RzIrFYsIdh03MpDqn2hQ-131" value="" style="edgeStyle=orthogonalEdgeStyle;rounded=0;orthogonalLoop=1;jettySize=auto;html=1;entryX=0;entryY=0.5;entryDx=0;entryDy=0;exitX=0.5;exitY=1;exitDx=0;exitDy=0;strokeColor=#0000FF;" edge="1" parent="1" source="RzIrFYsIdh03MpDqn2hQ-74" target="RzIrFYsIdh03MpDqn2hQ-109">
          <mxGeometry relative="1" as="geometry">
            <mxPoint x="-950" y="440" as="sourcePoint" />
            <mxPoint x="-990" y="485" as="targetPoint" />
            <Array as="points">
              <mxPoint x="-940" y="437" />
              <mxPoint x="-940" y="492" />
              <mxPoint x="-720" y="492" />
              <mxPoint x="-720" y="412" />
            </Array>
          </mxGeometry>
        </mxCell>
        <mxCell id="RzIrFYsIdh03MpDqn2hQ-132" value="" style="edgeStyle=orthogonalEdgeStyle;rounded=0;orthogonalLoop=1;jettySize=auto;html=1;entryX=1;entryY=0.5;entryDx=0;entryDy=0;exitX=0;exitY=0.75;exitDx=0;exitDy=0;strokeColor=#0000FF;" edge="1" parent="1" source="RzIrFYsIdh03MpDqn2hQ-39" target="RzIrFYsIdh03MpDqn2hQ-74">
          <mxGeometry relative="1" as="geometry">
            <mxPoint x="-880" y="485" as="sourcePoint" />
            <mxPoint x="-900" y="440" as="targetPoint" />
            <Array as="points">
              <mxPoint x="-900" y="414" />
              <mxPoint x="-900" y="429" />
            </Array>
          </mxGeometry>
        </mxCell>
        <mxCell id="RzIrFYsIdh03MpDqn2hQ-133" value="" style="endArrow=none;dashed=1;html=1;dashPattern=1 3;strokeWidth=2;rounded=0;" edge="1" parent="1">
          <mxGeometry width="50" height="50" relative="1" as="geometry">
            <mxPoint x="-1120" y="282" as="sourcePoint" />
            <mxPoint x="-450" y="280" as="targetPoint" />
          </mxGeometry>
        </mxCell>
      </root>
    </mxGraphModel>
  </diagram>
</mxfile>
